<?xml version="1.0" standalone="no"?>
<!DOCTYPE svg PUBLIC "-//W3C//DTD SVG 20010904//EN"
 "http://www.w3.org/TR/2001/REC-SVG-20010904/DTD/svg10.dtd">
<svg version="1.0" xmlns="http://www.w3.org/2000/svg"
 width="1640.000000pt" height="1640.000000pt" viewBox="0 0 1640.000000 1640.000000"
 preserveAspectRatio="xMidYMid meet">
<metadata>
Created by potrace 1.14, written by Peter Selinger 2001-2017
</metadata>
<g transform="translate(0.000000,1640.000000) scale(0.100000,-0.100000)"
fill="#000000" stroke="none">
<path d="M8658 12915 c-2 -2 -59 -6 -128 -9 -69 -3 -143 -8 -165 -11 -22 -2
-67 -7 -100 -10 -33 -2 -85 -8 -115 -11 -30 -4 -72 -7 -92 -8 -21 0 -38 -4
-38 -8 0 -3 -7 -5 -15 -4 -9 1 -39 -1 -68 -6 -29 -4 -68 -10 -87 -13 -19 -2
-51 -8 -70 -11 -19 -4 -42 -8 -50 -9 -36 -5 -99 -16 -145 -25 -27 -6 -61 -12
-75 -15 -20 -4 -51 -10 -100 -20 -20 -4 -88 -20 -160 -37 -93 -22 -110 -26
-140 -32 -11 -3 -24 -7 -28 -10 -5 -3 -19 -7 -33 -10 -13 -3 -64 -17 -114 -31
-49 -14 -99 -28 -109 -30 -20 -5 -169 -52 -196 -62 -8 -4 -17 -7 -20 -8 -28
-7 -87 -29 -96 -36 -6 -5 -14 -6 -17 -2 -4 3 -12 1 -19 -4 -7 -6 -37 -18 -67
-28 -29 -9 -65 -24 -80 -31 -14 -8 -32 -14 -39 -14 -7 0 -20 -4 -30 -10 -14
-8 -58 -27 -82 -35 -3 -1 -18 -7 -35 -14 -16 -7 -34 -14 -40 -15 -5 -1 -46
-19 -89 -39 -43 -20 -81 -37 -83 -37 -2 0 -46 -20 -96 -44 -51 -25 -103 -49
-117 -55 -14 -6 -32 -15 -40 -20 -8 -5 -44 -24 -80 -42 -36 -17 -87 -44 -115
-59 -27 -15 -81 -44 -120 -65 -70 -38 -123 -69 -160 -92 -11 -7 -38 -22 -60
-34 -22 -12 -42 -25 -45 -28 -3 -4 -27 -20 -55 -36 -27 -16 -71 -44 -96 -62
-26 -18 -51 -33 -58 -33 -6 0 -11 -3 -11 -8 0 -4 -9 -12 -19 -17 -32 -16 -194
-129 -213 -147 -10 -10 -22 -18 -26 -18 -5 0 -17 -8 -28 -17 -10 -10 -53 -43
-95 -74 -41 -31 -82 -64 -91 -73 -9 -9 -19 -16 -23 -16 -7 0 -218 -175 -330
-274 -213 -189 -537 -515 -668 -672 -17 -21 -44 -51 -59 -66 -14 -16 -24 -28
-20 -28 3 0 -1 -6 -10 -12 -8 -7 -46 -51 -83 -98 -37 -47 -72 -86 -77 -88 -4
-2 -8 -8 -8 -13 0 -11 -2 -14 -55 -74 -19 -22 -35 -46 -35 -52 0 -7 -4 -13 -9
-13 -5 0 -24 -23 -42 -51 -18 -28 -37 -56 -43 -62 -23 -24 -86 -117 -86 -127
0 -6 -3 -10 -7 -10 -5 0 -21 -21 -38 -48 -16 -26 -32 -49 -35 -52 -3 -3 -15
-21 -27 -40 -11 -19 -52 -87 -92 -150 -92 -148 -80 -128 -152 -255 -93 -163
-173 -317 -254 -490 -20 -44 -49 -105 -63 -135 -14 -30 -27 -60 -28 -66 -1 -6
-13 -35 -27 -65 -27 -59 -138 -338 -141 -354 -1 -5 -5 -15 -8 -21 -4 -6 -9
-22 -12 -36 -2 -14 -9 -34 -15 -44 -6 -11 -33 -93 -61 -184 -28 -91 -55 -177
-60 -192 -5 -14 -6 -29 -3 -32 4 -3 2 -6 -4 -6 -5 0 -10 -6 -11 -12 -3 -28 -9
-54 -14 -68 -4 -8 -9 -26 -11 -40 -3 -14 -19 -81 -36 -150 -43 -174 -54 -223
-55 -252 0 -10 -4 -18 -9 -18 -4 0 -6 -4 -3 -8 3 -4 1 -26 -4 -48 -5 -21 -11
-52 -14 -69 -3 -16 -8 -39 -10 -50 -2 -11 -7 -40 -11 -65 -4 -25 -9 -54 -11
-65 -2 -10 -6 -37 -10 -60 -3 -22 -8 -42 -10 -44 -4 -5 -138 84 -162 106 -7 7
-17 13 -21 13 -4 0 -16 8 -27 18 -10 9 -46 37 -79 62 -33 24 -65 49 -72 55 -7
5 -18 15 -25 20 -171 133 -434 381 -588 554 -36 40 -82 90 -103 112 -20 21
-37 41 -37 43 0 3 -11 17 -25 32 -14 15 -36 41 -48 57 -31 40 -47 57 -55 56
-4 0 -43 -55 -87 -122 -44 -67 -82 -124 -85 -127 -3 -3 -37 -52 -75 -110 -39
-58 -72 -107 -75 -110 -23 -23 -62 -93 -54 -98 5 -4 27 -29 49 -57 70 -89 221
-260 326 -370 120 -126 339 -335 350 -335 4 0 9 -3 11 -7 3 -7 21 -23 114
-103 38 -33 133 -109 174 -140 18 -14 39 -31 46 -37 7 -7 17 -13 22 -13 5 0
23 -13 40 -30 18 -16 36 -30 42 -30 5 0 10 -4 10 -10 0 -5 6 -10 14 -10 8 0
16 -3 18 -7 4 -11 97 -73 107 -73 5 0 11 -4 13 -8 2 -5 50 -37 107 -73 l104
-65 2 -310 c2 -170 6 -352 10 -404 3 -52 8 -117 10 -145 2 -27 4 -50 5 -50 1
0 3 -25 4 -55 2 -30 4 -55 5 -55 1 0 4 -22 6 -50 6 -71 14 -134 40 -320 9 -60
18 -121 21 -135 3 -14 9 -47 14 -75 5 -27 12 -63 15 -80 3 -16 8 -39 9 -50 2
-11 7 -31 10 -45 3 -14 8 -36 10 -50 3 -14 7 -34 10 -45 3 -11 12 -49 20 -85
8 -36 26 -110 41 -165 14 -55 27 -107 28 -115 2 -8 7 -23 13 -33 9 -16 37 -17
414 -15 354 3 405 5 401 18 -2 8 -21 76 -43 150 -22 74 -42 146 -44 159 -3 13
-9 32 -14 41 -5 10 -7 19 -5 22 3 2 0 20 -6 39 -5 19 -12 45 -15 58 -3 13 -11
50 -19 83 -7 32 -11 58 -8 58 3 0 1 6 -5 12 -5 7 -12 31 -15 53 -3 22 -8 51
-11 65 -6 26 -10 46 -26 140 -24 144 -29 176 -35 235 -2 22 -6 60 -10 85 -11
85 -16 133 -20 184 -2 28 -6 78 -9 111 -7 67 -18 263 -17 283 2 25 2 38 -1 75
-2 20 -1 37 2 37 3 0 44 -13 90 -29 82 -29 245 -78 283 -86 10 -2 27 -7 37
-10 10 -3 27 -7 37 -9 10 -2 36 -9 58 -14 22 -6 51 -13 65 -16 14 -3 35 -7 46
-10 36 -8 98 -19 124 -22 14 -1 26 -3 28 -4 4 -4 14 -6 77 -14 32 -4 68 -10
80 -12 11 -3 40 -6 65 -8 25 -3 74 -7 110 -11 36 -3 92 -8 125 -10 70 -5 437
-6 510 -1 172 12 344 30 385 41 8 2 39 7 69 10 30 4 62 9 73 11 10 2 26 6 37
8 10 2 36 7 57 10 21 4 64 13 94 21 31 8 65 16 76 18 10 2 39 9 64 16 25 8 50
14 55 15 6 2 30 8 55 15 25 7 52 15 60 16 12 3 158 50 218 70 7 3 13 4 15 4 1
0 27 11 57 24 30 14 58 25 63 26 4 0 23 8 43 16 20 8 38 15 41 15 2 0 25 9 51
21 26 11 67 30 92 40 25 11 63 29 85 39 22 11 51 24 65 30 23 9 158 80 273
142 26 15 47 25 47 23 0 -3 -11 -28 -23 -57 -27 -61 -51 -120 -53 -130 -1 -5
-3 -11 -4 -15 -1 -5 -2 -11 -1 -15 0 -5 -4 -8 -10 -8 -5 0 -7 -5 -4 -10 4 -6
2 -16 -4 -23 -8 -11 -64 -193 -77 -252 -6 -29 -13 -62 -20 -87 -6 -28 -13 -65
-18 -98 -2 -14 -5 -25 -6 -25 -2 0 -6 -25 -15 -99 -4 -33 -9 -69 -11 -80 -22
-113 -22 -583 0 -706 2 -14 7 -51 11 -83 3 -32 8 -64 10 -70 2 -7 6 -29 9 -49
3 -21 11 -59 17 -85 6 -27 12 -55 14 -63 23 -101 57 -219 82 -287 l16 -43 214
0 c200 0 213 1 205 17 -16 32 -90 256 -111 338 -38 143 -57 256 -77 442 -19
172 -3 519 32 703 3 19 7 44 8 56 1 11 5 24 8 30 3 5 9 27 12 49 12 65 69 259
79 266 5 3 8 8 6 10 -11 18 126 328 208 469 208 358 497 662 850 896 62 41
116 74 122 74 5 0 16 6 23 13 7 7 45 28 83 47 39 19 72 38 73 43 2 4 10 7 19
7 8 0 27 6 41 14 65 34 302 124 372 140 8 2 44 12 80 21 36 9 72 18 81 20 49
10 97 18 119 21 14 1 25 3 25 4 0 1 8 3 17 5 222 43 682 37 893 -10 6 -2 24
-5 40 -8 61 -12 91 -18 142 -31 28 -8 54 -11 57 -8 3 3 6 0 6 -6 0 -7 8 -12
18 -12 30 0 248 -74 269 -92 7 -6 13 -7 13 -4 0 4 10 1 23 -6 12 -7 24 -13 27
-13 17 -2 210 -100 210 -107 0 -4 7 -8 15 -8 13 0 222 -124 235 -140 3 -3 21
-17 40 -30 65 -45 210 -164 210 -172 0 -4 5 -8 10 -8 17 0 207 -198 297 -310
163 -201 285 -404 390 -649 25 -58 47 -113 48 -121 2 -8 4 -16 5 -17 2 -2 3
-6 4 -10 1 -5 14 -44 28 -89 27 -82 57 -193 63 -229 2 -11 6 -32 9 -47 11 -52
16 -83 22 -123 3 -22 7 -53 10 -70 21 -127 24 -645 4 -645 -4 0 -6 -10 -7 -22
-1 -30 -11 -105 -19 -143 -3 -16 -7 -39 -9 -50 -13 -79 -40 -180 -82 -310 -20
-60 -35 -112 -35 -115 0 -3 -4 -10 -8 -15 -5 -6 -13 -23 -19 -38 l-11 -27 220
0 c121 0 219 3 218 8 -1 4 12 52 29 107 29 90 65 230 77 295 2 14 5 25 6 25 1
0 3 12 5 26 6 43 15 100 20 123 26 115 38 507 22 696 -11 127 -13 143 -42 315
-2 11 -6 32 -9 48 -3 15 -8 37 -11 50 -19 96 -92 345 -122 417 -3 8 -7 20 -8
25 -2 6 -12 30 -23 55 -11 25 -33 74 -48 110 -41 94 -168 335 -185 350 -3 3
-16 23 -29 45 -13 22 -36 56 -52 75 -15 19 -28 38 -28 43 0 8 -3 12 -50 68
-16 20 -30 42 -30 48 0 7 -4 9 -10 6 -5 -3 -10 -1 -10 5 0 6 -6 17 -12 24 -7
7 -26 30 -43 51 -62 77 -234 255 -247 255 -5 0 -6 5 -3 10 3 6 2 10 -4 10 -6
0 -21 10 -33 23 -13 12 -46 41 -73 64 -28 24 -57 49 -65 56 -8 7 -42 33 -75
57 -33 25 -61 48 -63 53 -2 4 -9 7 -16 7 -7 0 -21 9 -31 20 -10 11 -24 20 -30
20 -7 0 -18 7 -25 15 -7 8 -24 21 -39 28 -14 8 -55 32 -91 54 -86 52 -260 143
-276 143 -6 0 -17 7 -24 15 -7 9 -15 14 -17 11 -3 -2 -28 7 -57 20 -50 23
-180 73 -201 77 -5 2 -16 6 -22 10 -7 5 -13 6 -13 3 0 -3 -12 -1 -27 5 -38 15
-220 66 -263 74 -19 3 -44 8 -55 10 -11 2 -20 4 -20 5 0 2 -73 14 -150 25 -27
3 -61 8 -74 10 -153 25 -538 25 -736 1 -60 -8 -121 -17 -145 -21 -14 -2 -36
-6 -50 -9 -14 -2 -36 -7 -50 -10 -14 -4 -38 -9 -55 -12 -16 -3 -55 -12 -85
-20 -30 -8 -64 -17 -74 -19 -10 -2 -34 -9 -53 -16 -19 -6 -37 -9 -39 -6 -6 5
162 237 180 249 6 4 7 8 2 8 -5 0 0 10 11 23 28 31 203 294 203 306 0 5 4 11
8 13 4 2 26 32 47 68 21 36 44 68 49 72 6 4 7 8 3 8 -4 0 5 19 21 43 16 23 46
74 67 112 22 39 44 73 49 77 6 4 8 8 4 8 -3 0 15 37 41 83 64 111 281 546 281
563 0 8 4 14 9 14 5 0 12 11 15 24 3 13 24 62 46 110 22 47 40 88 40 91 0 4
11 31 25 61 14 30 25 57 25 60 0 3 8 24 18 47 11 23 28 67 40 97 11 30 35 91
52 135 17 44 33 87 35 95 2 8 13 40 25 70 12 30 23 62 25 70 2 8 20 62 40 120
31 90 116 359 130 413 3 9 7 25 10 35 2 9 21 82 42 162 21 80 41 147 46 148 4
2 5 7 2 11 -2 4 0 25 6 46 6 20 12 45 14 54 2 9 15 66 30 126 14 61 27 119 29
130 2 11 11 58 21 105 9 47 19 94 20 105 7 37 15 80 27 135 6 30 12 62 13 70
2 13 12 75 20 120 4 20 16 109 20 140 4 34 15 111 20 135 2 11 4 26 4 34 1 10
13 12 54 7 98 -12 172 -23 172 -26 0 -1 11 -3 25 -5 14 -1 39 -6 55 -9 17 -4
44 -9 60 -12 40 -6 70 -12 70 -14 0 -1 9 -3 20 -4 230 -32 904 -238 1180 -361
17 -7 59 -25 95 -40 127 -53 342 -156 351 -168 3 -5 9 -8 13 -8 12 1 41 -12
59 -27 9 -8 17 -12 17 -8 0 3 18 -5 40 -19 22 -14 46 -25 54 -25 8 0 16 -4 18
-8 2 -5 37 -27 78 -50 68 -38 123 -71 218 -127 48 -29 276 -178 282 -184 3 -4
34 -26 70 -51 36 -24 70 -48 75 -52 6 -4 35 -26 65 -48 57 -41 85 -63 149
-115 21 -16 54 -43 75 -60 21 -16 48 -38 60 -48 11 -11 41 -35 65 -55 50 -42
64 -54 197 -178 212 -196 421 -416 584 -614 19 -23 43 -50 53 -58 9 -9 17 -22
17 -29 0 -7 4 -13 9 -13 4 0 19 -15 32 -34 13 -18 66 -89 118 -157 51 -68 147
-205 212 -304 66 -99 123 -184 127 -190 4 -5 11 -18 15 -27 3 -10 21 -42 40
-70 18 -29 36 -60 40 -68 4 -8 20 -37 37 -65 16 -27 55 -102 87 -165 32 -63
64 -120 71 -128 6 -7 12 -22 12 -31 0 -10 7 -24 15 -31 8 -7 15 -16 15 -21 0
-5 18 -48 40 -95 22 -47 40 -88 40 -90 0 -2 11 -27 24 -56 48 -105 126 -308
172 -448 14 -41 29 -84 34 -95 9 -18 95 -304 106 -350 3 -11 6 -24 8 -30 2 -5
6 -28 11 -50 4 -22 11 -44 14 -50 4 -5 7 -17 6 -25 -1 -8 3 -26 8 -40 5 -14
11 -34 13 -45 2 -11 8 -40 14 -65 5 -25 12 -56 14 -70 5 -23 7 -36 21 -100 3
-14 8 -41 11 -60 3 -19 7 -44 9 -55 2 -11 6 -38 10 -60 3 -22 7 -49 10 -60 4
-19 10 -64 20 -147 2 -21 6 -53 9 -70 6 -34 15 -118 21 -197 2 -25 7 -80 11
-121 3 -41 5 -84 5 -95 -3 -27 -2 -35 4 -75 5 -39 6 -541 1 -635 -15 -254 -36
-468 -61 -625 -2 -14 -7 -45 -10 -70 -3 -25 -8 -52 -10 -60 -2 -8 -7 -33 -10
-55 -3 -23 -8 -52 -10 -65 -3 -14 -8 -38 -11 -55 -3 -16 -14 -73 -25 -125 -22
-101 -21 -99 -39 -175 -7 -27 -13 -57 -14 -65 -1 -9 -5 -21 -10 -28 -4 -7 -9
-25 -11 -40 -4 -27 -76 -281 -90 -315 -7 -16 15 -17 406 -15 l413 3 23 90 c13
50 26 97 28 105 2 8 8 35 14 60 16 63 20 80 28 120 9 47 10 50 13 53 1 1 3 11
4 22 2 11 15 79 29 150 14 72 28 146 31 165 4 19 9 53 13 75 3 22 7 55 7 72 1
18 4 33 7 33 4 0 6 12 7 28 0 15 1 29 2 32 1 3 3 16 5 30 1 14 6 54 10 90 4
36 9 76 10 90 2 14 4 25 5 25 0 0 3 32 5 71 2 39 6 91 9 115 31 252 26 976 -9
1289 -4 30 -8 73 -10 95 -7 68 -14 128 -21 170 -3 22 -7 54 -9 70 -4 38 -15
113 -21 145 -3 14 -7 39 -9 55 -3 28 -8 52 -19 101 -2 12 -7 39 -10 60 -4 22
-8 46 -11 54 -2 8 -6 32 -10 54 -3 21 -7 41 -10 45 -4 8 -13 50 -20 95 -2 15
-7 36 -10 46 -3 10 -7 27 -9 37 -7 33 -66 252 -107 393 -5 19 -11 42 -14 50
-2 8 -10 34 -19 58 -8 23 -13 42 -9 42 3 0 1 6 -4 13 -6 6 -27 64 -48 127 -21
63 -42 126 -48 140 -6 14 -11 27 -11 30 -3 13 -67 175 -102 257 -8 17 -14 33
-14 36 0 5 -18 46 -94 212 -18 39 -43 94 -56 123 -13 28 -28 52 -32 52 -5 0
-7 4 -4 8 3 5 -1 19 -8 33 -7 13 -39 74 -71 134 -32 61 -73 136 -91 168 -19
32 -34 60 -34 62 0 1 -36 63 -81 137 -45 73 -90 149 -101 168 -11 19 -23 37
-27 40 -3 3 -26 37 -51 75 -48 75 -215 314 -249 355 -26 33 -83 109 -96 129
-5 8 -15 20 -21 26 -6 5 -34 39 -63 75 -54 69 -113 138 -146 175 -11 13 -40
46 -65 75 -109 127 -351 374 -521 530 -57 52 -118 110 -137 128 -19 17 -38 32
-42 32 -5 0 -10 3 -12 8 -2 4 -30 30 -63 57 -33 28 -62 52 -65 55 -3 3 -27 23
-55 45 -27 22 -55 44 -61 50 -6 5 -22 17 -34 25 -13 8 -33 25 -46 38 -13 12
-25 22 -28 22 -3 0 -43 28 -88 63 -46 34 -117 85 -157 112 -41 28 -82 56 -90
63 -24 20 -149 102 -156 102 -3 0 -11 5 -18 10 -18 16 -137 90 -143 90 -3 0
-18 8 -32 19 -33 23 -88 55 -212 123 -52 28 -96 55 -98 60 -2 4 -10 8 -17 8
-7 0 -63 27 -124 59 -62 33 -113 59 -114 59 -1 0 -40 18 -87 40 -110 52 -199
92 -205 92 -5 0 -23 8 -136 58 -26 12 -59 24 -73 28 -14 3 -26 10 -26 15 0 5
-3 8 -7 7 -9 -2 -46 8 -78 22 -69 28 -411 147 -447 155 -19 4 -124 34 -148 43
-8 3 -19 6 -25 7 -5 2 -80 21 -165 43 -132 34 -189 47 -290 67 -8 2 -15 4 -15
5 0 1 -11 3 -25 6 -14 2 -47 8 -75 14 -27 5 -61 12 -75 14 -14 3 -50 9 -80 15
-30 5 -71 13 -90 16 -19 3 -48 8 -65 11 -16 2 -48 6 -70 9 -22 2 -56 7 -75 10
-19 3 -60 8 -90 11 -83 9 -105 12 -105 14 0 1 -20 3 -45 4 -120 8 -249 18
-285 23 -44 5 -772 13 -777 8z m574 -785 l87 -3 -4 -33 c-3 -19 -7 -51 -10
-71 -3 -21 -7 -49 -10 -63 -2 -14 -7 -41 -9 -60 -3 -19 -7 -44 -10 -55 -2 -11
-6 -41 -10 -66 -9 -63 -16 -101 -21 -119 -3 -8 -7 -33 -11 -55 -3 -22 -12 -67
-19 -100 -8 -33 -16 -73 -19 -90 -10 -55 -15 -75 -19 -83 -3 -4 -8 -29 -12
-57 -3 -27 -10 -54 -15 -61 -6 -6 -7 -14 -3 -17 3 -4 0 -13 -6 -21 -7 -8 -10
-20 -6 -26 3 -5 3 -16 -2 -22 -8 -14 -9 -16 -18 -63 -3 -16 -10 -44 -16 -62
-5 -17 -12 -42 -14 -55 -3 -13 -14 -54 -26 -93 -21 -72 -42 -145 -53 -192 -3
-10 -25 -81 -51 -158 -25 -77 -48 -148 -50 -158 -2 -9 -7 -23 -12 -30 -4 -6
-9 -19 -10 -27 -1 -8 -25 -76 -53 -150 -27 -74 -50 -141 -50 -147 0 -7 -5 -13
-12 -13 -6 0 -8 -3 -5 -7 4 -3 3 -11 -2 -17 -5 -6 -14 -29 -21 -51 -7 -22 -21
-58 -31 -80 -38 -86 -53 -120 -54 -130 -1 -5 -16 -41 -34 -80 -18 -38 -40 -86
-48 -105 -35 -78 -196 -401 -247 -495 -53 -98 -66 -122 -135 -241 -18 -33 -39
-69 -45 -81 -6 -13 -14 -23 -18 -23 -5 0 -8 -7 -8 -15 0 -8 -4 -15 -8 -15 -5
0 -14 -16 -22 -35 -8 -19 -16 -35 -20 -35 -3 0 -16 -20 -30 -45 -14 -25 -28
-45 -32 -45 -5 0 -8 -4 -8 -9 0 -9 -116 -187 -130 -201 -3 -3 -25 -34 -50 -70
-24 -36 -50 -71 -57 -78 -7 -7 -13 -17 -13 -20 0 -4 -10 -18 -23 -32 -13 -14
-42 -52 -66 -85 -24 -33 -49 -64 -55 -70 -6 -5 -31 -37 -56 -70 -25 -33 -56
-71 -70 -85 -14 -14 -32 -35 -41 -47 -35 -50 -164 -188 -339 -362 -208 -206
-218 -215 -315 -296 -38 -32 -72 -61 -75 -64 -7 -9 -152 -124 -176 -141 -12
-8 -48 -35 -80 -60 -329 -250 -844 -531 -1196 -651 -35 -12 -74 -26 -88 -32
-14 -6 -29 -11 -35 -12 -5 -2 -48 -15 -95 -30 -47 -15 -94 -29 -105 -31 -27
-7 -49 -12 -52 -13 -2 -1 -5 -1 -8 -2 -2 0 -19 -5 -37 -10 -18 -6 -42 -12 -53
-14 -11 -3 -40 -9 -65 -15 -53 -12 -80 -17 -178 -35 -66 -13 -107 -19 -197
-30 -16 -2 -48 -6 -70 -9 -69 -10 -226 -19 -327 -20 -54 0 -98 -4 -98 -9 0 -4
-5 -5 -12 -1 -6 4 -55 9 -107 10 -134 4 -294 16 -371 29 -14 2 -52 7 -85 11
-33 3 -63 8 -68 11 -4 2 -24 6 -45 8 -46 5 -53 7 -188 40 -60 14 -116 28 -124
30 -61 13 -289 86 -390 125 -30 11 -63 24 -73 27 -16 5 -18 13 -13 47 3 23 8
60 11 84 3 23 8 61 11 85 3 23 7 56 9 72 2 17 6 44 9 60 4 17 9 48 12 70 5 44
12 80 14 80 1 0 3 12 5 27 6 43 35 185 57 278 11 47 22 93 24 103 2 10 6 28
10 40 4 12 9 29 10 37 2 13 10 48 18 75 2 6 6 24 10 40 4 17 10 37 13 45 3 8
7 21 9 28 3 17 54 184 61 202 4 8 7 18 8 23 2 4 4 9 5 12 1 3 3 8 4 13 4 15
28 88 36 107 22 55 70 192 70 203 0 7 5 12 11 12 5 0 8 3 5 8 -2 4 4 25 14 47
11 22 19 46 20 53 0 6 5 12 12 12 6 0 9 3 6 6 -6 5 4 30 52 139 85 190 128
280 184 383 24 45 41 82 38 82 -4 0 -2 4 4 8 6 4 42 63 80 131 101 181 103
184 111 190 4 3 19 26 33 51 13 25 28 50 33 55 4 6 31 46 59 90 28 44 60 90
71 103 11 12 17 22 14 22 -4 0 1 8 10 18 10 10 25 29 33 41 33 51 144 196 152
199 4 2 8 8 8 13 0 9 8 21 37 53 7 8 45 53 84 101 39 48 82 100 94 114 13 14
33 37 45 51 108 126 358 381 489 500 40 36 92 83 115 105 24 22 61 54 81 70
21 17 43 35 49 40 6 6 34 29 61 51 28 21 59 47 70 56 54 46 246 188 254 188 5
0 11 4 13 8 2 5 32 28 68 52 36 24 70 48 75 52 6 5 30 21 55 37 25 16 83 53
130 82 121 77 176 109 288 171 31 17 65 38 75 46 9 8 17 12 17 9 0 -3 30 11
68 32 120 66 353 176 365 173 4 -1 7 2 7 8 0 5 7 10 15 10 8 0 23 4 33 10 20
10 62 29 147 63 33 13 69 28 80 32 11 5 22 9 25 10 3 1 16 6 30 12 58 24 236
86 248 86 6 0 12 4 12 9 0 5 3 7 8 5 4 -3 18 0 32 6 14 5 30 11 35 12 6 1 48
15 95 30 70 22 176 52 250 71 8 2 35 8 60 15 25 6 52 13 60 16 16 6 28 9 76
17 17 2 59 12 93 21 34 9 66 13 71 10 6 -3 10 -2 10 3 0 5 6 9 13 9 20 2 82
12 82 14 0 1 9 3 20 4 11 1 36 6 55 9 19 4 49 9 65 11 17 2 44 6 60 9 47 10
86 15 140 21 28 3 61 7 75 9 123 16 190 23 325 31 44 2 80 5 80 6 0 0 45 3
100 6 55 2 100 5 101 6 3 3 359 0 466 -3z"/>
<path d="M5496 8963 c-3 -4 -25 -8 -49 -9 -23 -2 -53 -5 -66 -8 -32 -7 -112
-46 -133 -64 -10 -8 -18 -12 -18 -8 0 4 -26 -19 -58 -51 -60 -61 -113 -139
-127 -189 -5 -16 -9 -32 -10 -36 -2 -5 -4 -9 -5 -10 -10 -11 -15 -171 -7 -211
12 -56 46 -139 79 -192 20 -31 105 -115 117 -115 6 0 11 -3 11 -8 0 -6 65 -42
115 -63 81 -33 241 -33 330 1 14 5 25 6 25 2 0 -4 4 -2 8 4 4 6 23 19 42 29
117 60 219 199 246 337 9 43 9 144 0 188 -27 138 -137 288 -247 336 -21 10
-39 21 -39 26 0 4 -11 8 -23 8 -13 0 -27 3 -31 7 -7 7 -18 10 -76 17 -19 3
-45 7 -57 10 -11 2 -24 2 -27 -1z"/>
</g>
</svg>
