<?xml version="1.0" standalone="no"?>
<!DOCTYPE svg PUBLIC "-//W3C//DTD SVG 20010904//EN"
 "http://www.w3.org/TR/2001/REC-SVG-20010904/DTD/svg10.dtd">
<svg version="1.0" xmlns="http://www.w3.org/2000/svg"
 width="700.000000pt" height="700.000000pt" viewBox="0 0 700.000000 700.000000"
 preserveAspectRatio="xMidYMid meet">
<metadata>
Created by potrace 1.14, written by Peter Selinger 2001-2017
</metadata>
<g transform="translate(0.000000,700.000000) scale(0.100000,-0.100000)"
fill="#000000" stroke="none">
<path d="M2322 6990 c-540 -20 -882 -81 -1137 -201 -86 -40 -216 -118 -320
-192 -129 -91 -376 -338 -467 -467 -249 -353 -337 -644 -380 -1265 -19 -259
-18 -2476 0 -2735 41 -580 120 -866 326 -1179 176 -268 433 -512 706 -668 286
-164 547 -227 1093 -265 257 -18 2456 -18 2717 0 580 40 871 118 1179 318 240
157 468 384 624 624 200 308 279 598 319 1180 19 264 18 2445 0 2720 -37 551
-111 842 -289 1133 l-38 62 -6 -370 c-5 -344 -7 -381 -32 -520 -97 -538 -287
-1055 -551 -1495 -41 -68 -72 -128 -70 -132 3 -4 20 -8 38 -8 93 0 369 -63
519 -118 l97 -36 0 -504 0 -504 -22 16 c-151 111 -267 173 -411 221 -386 127
-802 69 -1147 -160 -98 -65 -274 -240 -337 -335 -101 -151 -177 -330 -210
-497 -24 -123 -24 -377 0 -493 37 -175 116 -365 202 -486 l35 -49 -482 -3
c-266 -1 -488 0 -495 2 -17 7 -79 206 -107 348 -53 264 -59 503 -20 775 l6 43
-48 -15 c-324 -102 -732 -171 -1115 -191 l-136 -7 19 -106 c40 -227 125 -510
219 -730 27 -62 49 -115 49 -117 0 -2 -211 -4 -469 -4 l-470 0 -45 139 c-82
250 -160 607 -182 829 -4 41 -12 75 -18 77 -6 1 -87 21 -181 43 -259 62 -546
162 -785 273 l-90 42 0 477 c0 366 3 480 13 492 11 15 22 10 108 -42 126 -77
347 -187 488 -244 120 -49 365 -130 424 -141 l34 -7 8 69 c13 127 55 357 95
518 286 1156 1029 2142 2063 2736 528 303 1103 487 1737 555 256 28 709 22
960 -12 l45 -6 -45 47 c-149 156 -441 341 -660 420 -180 64 -448 111 -785 136
-182 13 -2260 21 -2573 9z"/>
<path d="M5594 5539 c-557 -32 -1133 -214 -1608 -507 -618 -382 -1100 -939
-1381 -1598 -128 -298 -218 -639 -259 -972 l-7 -52 38 0 c100 0 344 23 490 46
1274 197 2343 1099 2758 2329 73 217 122 435 160 718 6 47 6 47 -22 46 -15 -1
-92 -6 -169 -10z m-1865 -1660 c123 -28 236 -119 292 -236 29 -59 34 -81 37
-166 4 -83 1 -107 -18 -160 -111 -304 -477 -393 -709 -172 -235 224 -148 618
159 722 71 25 165 29 239 12z"/>
</g>
</svg>
