<?xml version="1.0" standalone="no"?>
<!DOCTYPE svg PUBLIC "-//W3C//DTD SVG 20010904//EN"
 "http://www.w3.org/TR/2001/REC-SVG-20010904/DTD/svg10.dtd">
<svg version="1.0" xmlns="http://www.w3.org/2000/svg"
 width="896.000000pt" height="896.000000pt" viewBox="0 0 896.000000 896.000000"
 preserveAspectRatio="xMidYMid meet">
<metadata>
Created by potrace 1.14, written by Peter Selinger 2001-2017
</metadata>
<g transform="translate(0.000000,896.000000) scale(0.100000,-0.100000)"
fill="#000000" stroke="none">
<path d="M4729 7155 c-2 -1 -47 -6 -99 -9 -52 -3 -106 -8 -120 -11 -14 -2 -45
-6 -70 -9 -78 -10 -124 -16 -150 -22 -14 -2 -40 -7 -59 -9 -18 -3 -36 -7 -40
-9 -3 -3 -24 -7 -46 -10 -31 -5 -244 -58 -320 -80 -362 -104 -851 -337 -1130
-538 -101 -73 -221 -162 -225 -167 -3 -3 -27 -24 -55 -46 -86 -68 -115 -96
-276 -255 -134 -133 -359 -386 -359 -404 0 -3 -8 -14 -17 -24 -10 -10 -24 -27
-31 -38 -7 -10 -43 -63 -80 -116 -37 -54 -80 -119 -96 -145 -16 -27 -36 -59
-44 -73 -49 -77 -150 -276 -208 -407 -68 -154 -156 -391 -179 -483 -3 -8 -12
-42 -21 -75 -9 -33 -18 -67 -19 -75 -2 -8 -4 -15 -5 -15 -1 0 -4 -11 -6 -25
-3 -14 -9 -42 -15 -63 -5 -21 -12 -54 -15 -74 -2 -19 -6 -38 -9 -42 -5 -9 -28
-150 -41 -251 -3 -25 -7 -54 -9 -65 -2 -11 -4 -26 -4 -32 -1 -9 -8 -10 -23 -4
-13 5 -57 19 -98 31 -115 34 -252 81 -315 109 -11 5 -38 17 -60 26 -91 39
-276 134 -369 189 -78 46 -100 56 -107 45 -5 -8 -8 -212 -6 -454 l2 -439 35
-18 c180 -91 621 -249 760 -272 79 -14 180 -42 181 -50 1 -6 3 -24 4 -41 6
-55 14 -120 15 -120 2 0 5 -21 15 -85 8 -54 15 -93 21 -120 3 -14 8 -36 10
-50 17 -92 97 -382 120 -437 8 -17 17 -45 20 -62 l7 -31 433 0 c239 0 434 2
434 4 0 3 -21 51 -67 154 -28 63 -111 311 -106 316 3 3 1 11 -4 18 -8 11 -34
109 -49 188 -2 8 -12 56 -22 106 -13 61 -15 91 -8 92 6 0 63 3 126 6 153 7
278 18 370 32 19 3 53 8 75 11 22 3 47 6 55 7 8 1 26 5 40 9 14 3 39 9 55 11
39 6 81 15 130 27 22 5 51 12 65 15 14 3 56 14 95 25 38 11 77 22 85 24 8 2
31 9 50 14 19 6 36 11 38 11 2 0 0 -17 -3 -37 -13 -76 -15 -100 -21 -188 -7
-110 -7 -87 0 -230 3 -66 8 -131 11 -145 5 -24 15 -86 20 -125 1 -11 10 -51
20 -88 9 -37 18 -73 19 -80 1 -7 15 -49 30 -95 l28 -82 454 0 455 0 -24 32
c-62 83 -157 284 -171 361 -2 15 -7 31 -10 36 -4 5 -8 22 -11 38 -2 15 -6 42
-9 58 -5 30 -17 141 -18 160 -1 58 16 224 27 275 8 36 17 76 21 90 11 52 78
207 115 269 22 34 39 65 39 68 0 2 27 37 59 76 68 83 142 155 221 215 30 23
61 47 68 52 6 6 12 7 12 3 0 -4 4 -3 8 3 7 12 86 54 172 92 58 26 161 57 236
72 77 16 302 21 379 9 33 -6 74 -12 90 -14 101 -13 303 -99 428 -182 76 -51
297 -264 297 -287 0 -4 8 -16 18 -27 11 -10 25 -32 33 -47 7 -15 21 -38 30
-52 46 -72 118 -280 135 -395 14 -92 9 -365 -7 -410 -4 -11 -12 -45 -19 -75
-17 -79 -77 -225 -121 -299 -22 -34 -39 -65 -39 -68 0 -2 -7 -11 -15 -19 -8
-9 -15 -20 -15 -25 0 -5 179 -9 449 -9 l449 0 27 80 c15 45 28 88 30 98 2 9 4
17 5 17 1 0 3 7 5 15 1 8 8 33 14 55 6 22 13 56 15 75 3 19 8 46 11 60 10 49
17 117 20 210 2 52 5 97 6 100 1 3 1 8 0 12 0 4 -3 51 -5 105 -6 103 -10 140
-27 238 -6 33 -12 69 -14 80 -2 11 -11 47 -20 80 -9 33 -18 67 -20 75 -2 8
-14 45 -28 82 -14 36 -23 69 -20 72 4 3 2 6 -4 6 -6 0 -14 12 -18 28 -21 86
-187 367 -290 491 -152 181 -292 306 -475 422 -170 108 -275 158 -445 215
-147 48 -258 73 -407 90 -32 4 -58 9 -58 11 0 9 55 98 62 101 4 2 8 7 8 12 0
4 24 50 53 101 85 150 216 431 248 529 4 14 17 50 29 80 12 30 23 66 26 80 3
13 10 30 16 37 6 7 8 13 5 13 -3 0 4 28 15 63 26 82 23 71 63 242 37 158 54
252 71 385 3 25 7 54 9 65 2 11 4 25 4 31 1 12 3 12 206 -52 66 -20 124 -41
130 -46 5 -4 14 -8 21 -8 6 0 29 -8 50 -17 22 -9 41 -17 44 -18 35 -10 257
-118 325 -158 28 -17 70 -41 95 -55 67 -37 222 -145 339 -236 99 -76 360 -327
444 -426 58 -67 181 -230 202 -267 11 -18 23 -33 27 -33 4 0 8 -7 8 -15 0 -8
5 -15 10 -15 6 0 10 -5 10 -11 0 -6 13 -29 28 -52 49 -72 201 -357 215 -404 3
-10 19 -49 35 -88 28 -67 82 -215 87 -239 1 -6 4 -18 7 -26 21 -62 59 -210 74
-290 2 -14 7 -38 11 -55 7 -34 8 -42 17 -110 4 -27 9 -66 12 -85 9 -55 22
-252 25 -365 1 -37 -11 -298 -16 -335 -3 -25 -7 -65 -10 -90 -14 -113 -47
-295 -70 -378 -2 -9 -9 -35 -15 -57 -12 -45 -15 -53 -22 -75 -3 -8 -17 -51
-31 -95 -22 -72 -77 -214 -121 -318 l-16 -37 432 2 433 3 24 70 c19 59 50 158
66 215 4 14 41 161 51 205 3 11 7 31 10 45 2 14 9 49 15 78 6 29 13 69 15 89
3 20 6 39 8 42 3 3 7 40 11 80 4 41 9 84 11 95 13 67 19 224 18 456 -2 294 -3
312 -39 582 -8 59 -27 158 -46 246 -12 52 -22 101 -24 110 -2 9 -4 17 -5 17
-1 0 -3 9 -5 20 -2 11 -18 67 -35 125 -17 58 -32 110 -34 115 -2 6 -6 17 -9
25 -3 8 -15 44 -28 80 -12 36 -28 77 -36 92 -7 15 -13 29 -12 30 6 18 -200
457 -228 486 -7 7 -16 24 -19 38 -3 13 -10 24 -15 24 -5 0 -9 5 -9 11 0 6 -14
30 -30 54 -16 24 -30 48 -30 54 0 6 -4 11 -10 11 -5 0 -10 4 -10 10 0 11 -102
163 -132 196 -10 11 -18 25 -18 31 0 6 -3 13 -8 15 -4 2 -32 35 -62 73 -29 39
-60 77 -67 85 -8 8 -24 27 -36 41 -162 187 -307 331 -470 468 -148 124 -405
311 -428 311 -5 0 -9 5 -9 10 0 6 -4 10 -9 10 -6 0 -30 14 -54 30 -25 17 -49
30 -55 30 -6 0 -12 3 -14 8 -7 15 -363 194 -463 232 -17 6 -30 11 -30 10 0 -1
-25 10 -55 23 -30 13 -84 34 -120 46 -36 12 -74 26 -85 31 -11 5 -29 10 -40
13 -11 3 -60 16 -109 31 -48 14 -98 28 -110 30 -11 3 -70 16 -129 30 -59 15
-122 28 -140 31 -18 2 -43 7 -57 9 -57 11 -252 35 -280 35 -8 0 -28 3 -45 6
-32 6 -570 16 -576 10z m217 -803 c-3 -5 -7 -33 -10 -63 -11 -96 -19 -145 -42
-254 -8 -38 -18 -83 -21 -100 -3 -16 -11 -48 -18 -70 -8 -22 -16 -54 -19 -71
-3 -17 -13 -49 -22 -70 -9 -21 -15 -40 -14 -42 1 -2 -3 -15 -8 -30 -6 -15 -25
-65 -42 -112 -78 -209 -187 -421 -318 -620 -69 -105 -95 -139 -195 -265 -84
-105 -316 -342 -406 -415 -24 -19 -60 -50 -80 -67 -20 -18 -42 -33 -48 -33 -7
0 -13 -3 -13 -7 0 -5 -17 -19 -38 -33 -20 -14 -39 -28 -42 -31 -8 -11 -200
-133 -270 -173 -90 -50 -370 -186 -385 -186 -2 0 -16 -5 -32 -12 -15 -6 -30
-12 -33 -13 -3 -1 -12 -5 -20 -8 -39 -17 -239 -78 -300 -93 -8 -2 -51 -12 -95
-23 -90 -22 -242 -48 -325 -56 -30 -3 -69 -8 -87 -10 -17 -3 -88 -7 -157 -11
-126 -5 -131 -4 -128 27 8 62 15 115 24 164 5 33 12 71 14 85 6 33 24 112 41
180 8 30 16 64 18 76 3 12 20 68 39 125 112 344 270 648 480 929 70 94 84 112
161 199 70 82 258 266 335 330 41 34 86 71 99 82 80 67 339 239 360 239 6 0
11 5 11 10 0 6 4 10 10 10 5 0 31 13 57 29 27 16 55 31 63 33 8 2 17 6 20 10
7 9 147 72 263 119 138 55 278 102 377 125 8 2 51 12 95 23 44 10 94 21 110
24 196 33 217 35 320 43 44 3 81 7 82 7 6 6 193 5 189 -1z"/>
<path d="M2840 4820 c-74 -25 -180 -95 -180 -119 0 -6 -4 -11 -9 -11 -6 0 -27
-34 -47 -75 -32 -66 -38 -86 -40 -156 -4 -122 21 -194 97 -281 84 -95 186
-139 316 -134 151 6 272 85 339 222 33 66 38 85 40 156 3 120 -18 180 -95 277
-93 117 -276 170 -421 121z"/>
</g>
</svg>
