<?xml version="1.0" standalone="no"?>
<!DOCTYPE svg PUBLIC "-//W3C//DTD SVG 20010904//EN"
 "http://www.w3.org/TR/2001/REC-SVG-20010904/DTD/svg10.dtd">
<svg version="1.0" xmlns="http://www.w3.org/2000/svg"
 width="512.000000pt" height="512.000000pt" viewBox="0 0 512.000000 512.000000"
 preserveAspectRatio="xMidYMid meet">
<metadata>
Created by potrace 1.14, written by Peter Selinger 2001-2017
</metadata>
<g transform="translate(0.000000,512.000000) scale(0.100000,-0.100000)"
fill="#000000" stroke="none">
<path d="M905 4306 c-60 -28 -87 -56 -114 -116 -20 -44 -21 -59 -21 -1194 0
-852 3 -1159 12 -1188 17 -56 79 -123 136 -145 45 -17 122 -18 1642 -18 1520
0 1597 1 1642 18 57 22 119 89 136 145 9 29 12 336 12 1188 0 1135 -1 1150
-21 1194 -27 60 -54 88 -114 116 l-50 24 -1605 0 -1605 0 -50 -24z m3193
-1158 l2 -928 -1540 0 -1540 0 0 923 c0 508 3 927 7 930 3 4 695 6 1537 5
l1531 -3 3 -927z m-1442 -1019 c36 -13 86 -62 105 -104 91 -199 -153 -381
-319 -239 -175 149 -4 423 214 343z"/>
<path d="M2523 2056 c-67 -30 -92 -119 -53 -184 21 -34 72 -62 113 -62 36 0
90 40 111 84 16 32 17 44 8 75 -24 79 -107 119 -179 87z"/>
<path d="M2018 1271 l-178 -238 0 -121 0 -122 720 0 720 0 0 122 0 121 -177
238 -178 238 -365 0 -365 0 -177 -238z"/>
</g>
</svg>
