<svg width="406" height="306" viewBox="0 0 406 306" fill="none" xmlns="http://www.w3.org/2000/svg">
<g id="Information_flow_Monochromatic 1" clip-path="url(#clip0_1_2)">
<path id="Blob" opacity="0.18" d="M330.672 8.23021C344.659 10.527 357.826 16.3635 368.922 25.1845C381.972 35.4599 396.177 49.3059 395.741 66.4915C395.278 84.7045 388.471 102.25 381.098 118.665C371.131 140.834 357.259 164.21 360.933 188.897C364.606 213.583 359.674 243.125 346.676 264.035C326.125 296.968 290.161 304.957 254.198 305.727C230.436 306.215 205.98 304.803 184.325 295.015C161.565 284.74 143.224 265.731 120.104 256.919C104.691 251.114 87.8396 249.958 72.7605 243.433C53.7768 235.187 39.1344 218.849 29.6554 200.456C20.1764 182.063 15.347 161.641 11.6736 141.373C5.66247 107.105 19.9452 64.308 40.5216 36.2562C54.2392 17.6065 77.2046 -3.99746 100.812 0.5237C221.008 23.335 197.914 -13.3223 330.672 8.23021Z" fill="#F22929"/>
<path id="Blob_2" opacity="0.18" d="M75.3673 297.497C61.38 295.2 48.2127 289.364 37.1173 280.543C24.0676 270.267 9.86191 256.421 10.2986 239.236C10.761 221.023 17.5684 203.478 24.941 187.063C34.9081 164.894 48.7798 141.517 45.1064 116.831C41.4329 92.1442 46.3651 62.6026 59.3634 41.6922C79.9141 8.75974 115.878 0.770652 151.842 7.11647e-07C175.603 -0.488079 200.059 0.924785 221.714 10.7121C244.474 20.9874 262.815 39.9968 285.935 48.8079C301.348 54.6135 318.2 55.7695 333.279 62.2943C352.262 70.5403 366.905 86.8781 376.384 105.271C385.863 123.664 390.692 144.086 394.366 164.354C400.377 198.623 386.094 241.419 365.518 269.471C351.8 288.121 328.835 309.725 305.227 305.204C185.031 282.392 208.125 319.05 75.3673 297.497Z" fill="#F22929"/>
<g id="Paper_plane">
<path id="Vector" d="M237.641 54.5621L318.174 65.2742L261.582 71.2853L237.641 54.5621Z" fill="#F22929"/>
<path id="Vector_2" d="M261.582 71.2853L265.872 96.5626L272.731 75.5752L318.174 65.2742L261.582 71.2853Z" fill="#F22929"/>
<path id="Vector_3" d="M261.582 71.2853L265.872 96.5626L272.731 75.5752L318.174 65.2742L261.582 71.2853Z" fill="url(#paint0_linear_1_2)"/>
<path id="Vector_4" d="M289.865 98.7205L272.731 75.5752L318.174 65.2742L289.865 98.7205Z" fill="#F22929"/>
<path id="Vector_5" d="M265.872 96.5626L282.339 88.5222L272.731 75.5752L265.872 96.5626Z" fill="white"/>
<path id="Vector_6" opacity="0.59" d="M265.872 96.5626L282.339 88.5222L272.731 75.5752L265.872 96.5626Z" fill="#F22929"/>
</g>
<path id="Vector_7" d="M252.283 99.003L251.538 95.6378C252.407 95.4667 253.265 95.2436 254.107 94.9699L255.289 98.181C254.306 98.52 253.302 98.7946 252.283 99.003V99.003Z" fill="#F22929"/>
<path id="Vector_8" d="M161.937 259.607L159.06 258.965L159.908 255.625C160.833 255.882 161.732 256.113 162.656 256.319L161.937 259.607Z" fill="#F22929"/>
<path id="Vector_9" d="M147.937 255.625C146.062 255.009 144.238 254.392 142.465 253.724L143.647 250.513C145.368 251.155 147.166 251.772 148.99 252.363L147.937 255.625ZM131.753 249.229C129.955 248.355 128.208 247.456 126.616 246.66L128.234 243.552C129.801 244.425 131.471 245.298 133.217 246.12L131.753 249.229ZM270.471 247.122H264.691V243.68L270.368 243.834L270.471 247.122ZM282.03 246.917L281.85 243.5C283.777 243.5 285.678 243.269 287.502 243.089L287.785 246.506C285.986 246.686 284.06 246.814 282.082 246.917H282.03ZM253.208 246.12L247.479 245.53L247.865 242.113C249.766 242.344 251.641 242.524 253.516 242.704L253.208 246.12ZM299.447 244.887L298.856 241.522C300.731 241.188 302.607 240.803 304.379 240.392L305.15 243.731C303.223 244.271 301.297 244.656 299.344 244.99L299.447 244.887ZM316.324 240.366L315.117 237.181C316.915 236.487 318.636 235.768 320.255 234.997L321.745 238.08C319.921 239.005 318.097 239.775 316.222 240.469L316.324 240.366ZM116.957 239.904C115.419 238.661 113.96 237.322 112.59 235.896L115.159 233.533C116.433 234.858 117.788 236.102 119.217 237.258L116.957 239.904ZM331.814 231.94L329.708 229.217C330.607 228.524 331.48 227.779 332.277 227.008L333.741 225.57L336.13 228.01L334.537 229.526C333.741 230.45 332.688 231.272 331.712 232.043L331.814 231.94ZM105.757 226.083C104.882 224.274 104.194 222.38 103.702 220.432L107.041 219.687C107.423 221.458 108 223.181 108.762 224.825L105.757 226.083ZM169.721 225.261L164.198 223.001L165.585 219.867C167.306 220.612 169.053 221.357 170.723 222.076L169.721 225.261ZM343.939 219.122L341.139 217.144C342.192 215.65 343.144 214.088 343.991 212.469L347.022 214.036C346.071 215.836 344.998 217.57 343.811 219.225L343.939 219.122ZM153.845 218.146C152.098 217.298 150.377 216.425 148.708 215.577L150.249 212.725C151.919 213.599 153.614 214.472 155.387 215.294L153.845 218.146ZM138.509 210.157C136.84 209.18 135.17 208.179 133.577 207.151L135.401 204.248C136.968 205.25 138.612 206.252 140.256 207.228L138.509 210.157ZM106.913 209.155L103.547 208.513C103.944 206.554 104.493 204.63 105.191 202.758L108.403 203.94C107.795 205.597 107.314 207.297 106.964 209.026L106.913 209.155ZM350.438 202.784L347.022 202.424C347.12 201.572 347.171 200.714 347.176 199.856C347.173 198.997 347.122 198.139 347.022 197.287L350.438 196.927C350.541 197.926 350.592 198.929 350.593 199.933C350.599 200.841 350.565 201.75 350.49 202.656L350.438 202.784ZM123.995 200.678C122.428 199.522 120.861 198.366 119.371 197.184L121.478 194.487C122.942 195.643 124.458 196.773 125.999 197.903L123.995 200.678ZM113.592 194.076L110.74 192.175C111.819 190.608 113.001 189.041 114.259 187.474L116.828 189.632C115.724 191.096 114.593 192.611 113.592 194.076ZM110.612 189.606C109.173 188.27 107.786 186.883 106.476 185.522L109.045 183.132C110.329 184.468 111.614 185.701 113.052 187.114L110.612 189.606ZM343.837 186.857C342.977 185.251 342.007 183.706 340.934 182.233L343.708 180.204C344.875 181.844 345.93 183.561 346.868 185.342L343.837 186.857ZM124.612 181.463L122.274 178.894C123.661 177.609 125.126 176.325 126.641 175.041L128.825 177.609C127.361 178.945 125.948 180.204 124.612 181.463ZM98.9235 176.531C97.7418 174.938 96.6116 173.32 95.6097 171.701L98.5125 169.877C99.463 171.419 100.542 172.96 101.672 174.475L98.9235 176.531ZM333.458 173.962C332.148 172.754 330.71 171.547 329.194 170.365L331.301 167.797C332.893 169.03 334.383 170.365 335.77 171.573L333.458 173.962ZM137.816 170.879L135.94 168.053C137.507 166.974 139.152 165.896 140.77 164.842L142.619 167.745C141.078 168.747 139.357 169.8 137.816 170.879ZM319.921 163.918C318.354 162.941 316.71 161.991 315.04 161.066L316.71 158.061C318.431 159.011 320.126 160.013 321.719 160.989L319.921 163.918ZM152.304 162.017L150.686 159.011C152.355 158.086 154.102 157.187 155.823 156.442L157.365 159.525C155.669 160.193 153.922 161.092 152.304 161.991V162.017ZM90.2408 161.349C89.5216 159.499 88.8794 157.598 88.3656 155.749L91.6794 154.85C92.1675 156.571 92.7583 158.343 93.4262 159.987L90.2408 161.349ZM304.944 155.98L299.807 153.694L301.142 150.534C302.915 151.305 304.713 152.075 306.434 152.872L304.944 155.98ZM167.64 154.67L166.304 151.51C168.051 150.765 169.875 150.02 171.647 149.327L172.906 152.512C171.159 153.103 169.335 153.848 167.64 154.593V154.67ZM289.172 149.532C287.399 148.916 285.601 148.299 283.777 147.708L284.83 144.446C286.68 145.037 288.529 145.679 290.302 146.295L289.172 149.532ZM183.592 148.505L182.513 145.242C184.363 144.651 186.213 144.06 188.062 143.521L189.038 146.809C187.317 147.426 185.391 147.991 183.592 148.505ZM272.86 144.42C271.036 143.958 269.16 143.495 267.337 143.084L268.107 139.745C269.957 140.156 271.858 140.618 273.733 141.106L272.86 144.42ZM86.6445 143.932C86.6445 143.007 86.6445 142.108 86.6445 141.209C86.6445 140.31 86.6445 139.103 86.6445 138.075L90.061 138.229C90.061 139.205 90.061 140.182 90.061 141.209C90.061 142.237 90.061 142.93 90.061 143.778L86.6445 143.932ZM200.007 143.932L199.237 140.798C201.112 140.361 203.013 139.95 204.888 139.565L205.556 142.93C203.706 143.161 201.831 143.572 200.007 143.983V143.932ZM256.213 140.952L254.107 140.798L250.665 140.387L251.024 136.97L254.595 137.407L256.779 137.741L256.213 140.952ZM216.756 140.952L216.294 137.561C218.22 137.304 220.147 137.099 222.048 136.919L222.382 140.31C220.507 140.464 218.631 140.798 216.756 140.926V140.952ZM233.685 139.616V136.2C235.611 136.2 237.538 136.2 239.465 136.2V139.642C237.461 139.539 235.56 139.565 233.685 139.591V139.616ZM91.4996 127.26L88.1601 126.515C88.5711 124.589 89.1106 122.688 89.7014 120.838L92.9638 121.917C92.3794 123.67 91.8906 125.454 91.4996 127.26V127.26ZM97.4593 111.847L94.5051 110.126C95.5 108.428 96.5803 106.782 97.7419 105.194L100.516 107.223C99.3951 108.697 98.3574 110.232 97.4079 111.822L97.4593 111.847ZM240.441 99.9535C238.469 99.8538 236.505 99.6394 234.558 99.3113L235.123 95.9204C236.943 96.2272 238.778 96.4331 240.621 96.5369L240.441 99.9535ZM107.94 98.9773L105.628 96.4085C107.067 95.1241 108.582 93.8397 110.175 92.658L112.23 95.4067C110.74 96.5626 109.276 97.7443 107.94 98.9773ZM223.281 95.9718C221.462 95.215 219.687 94.3574 217.963 93.403L219.608 90.3974C221.228 91.2764 222.891 92.0737 224.591 92.7864L223.281 95.9718ZM121.683 89.4213L120.065 86.39C121.76 85.5166 123.533 84.6432 125.203 83.8212L126.59 86.9552C124.997 87.7772 123.276 88.5992 121.683 89.4213ZM208.202 86.8524C206.737 85.851 205.18 84.9909 203.552 84.2836L204.991 81.1753C206.792 82.017 208.512 83.0231 210.129 84.1808L208.202 86.8524ZM137.276 83.1019L136.274 79.8138C138.098 79.2743 139.999 78.7606 141.9 78.2725L142.697 81.612C140.873 82.0487 139.049 82.5625 137.276 83.1019ZM193.02 80.7129C191.273 80.3019 189.424 79.9422 187.523 79.634L188.062 76.2688C190.04 76.5771 191.967 76.9624 193.816 77.3991L193.02 80.7129ZM153.922 79.4799L153.434 76.089C155.335 75.8321 157.288 75.6009 159.214 75.4211L159.522 78.8376C157.519 79.1459 155.643 79.1459 153.922 79.4799ZM176.451 78.478C174.601 78.478 172.701 78.3239 170.8 78.3239V74.9073C172.752 74.9073 174.704 74.9073 176.605 75.0615L176.451 78.478Z" fill="#F22929"/>
<g id="Woman">
<path id="Vector_10" d="M197.901 122.2C197.822 123.357 197.553 124.494 197.105 125.565C196.714 126.16 196.195 126.66 195.586 127.029C194.977 127.398 194.294 127.626 193.585 127.697C192.172 127.928 190.734 127.825 189.321 127.954C187.908 128.082 186.367 128.904 186.521 130.214C186.594 130.616 186.761 130.995 187.009 131.319L188.73 134.222C188.953 134.506 189.063 134.863 189.038 135.224C189.038 135.712 188.396 135.969 187.934 136.174C186.769 136.768 185.74 137.598 184.913 138.61C184.086 139.623 183.479 140.797 183.13 142.057C182.429 144.578 182.429 147.242 183.13 149.763C183.152 149.94 183.208 150.11 183.296 150.265C183.385 150.419 183.503 150.554 183.644 150.662C183.88 150.791 184.146 150.853 184.414 150.842C185.221 150.979 185.991 151.277 186.68 151.719C187.368 152.16 187.961 152.736 188.422 153.411C189.314 154.812 190.112 156.271 190.811 157.778C192.736 161.388 195.547 164.449 198.98 166.673C202.413 168.898 206.356 170.212 210.437 170.494C211.105 170.56 211.78 170.481 212.415 170.263C213.175 169.878 213.788 169.256 214.162 168.49C215.934 165.253 215.42 161.374 215.549 157.829C215.541 156.07 215.873 154.326 216.525 152.692C216.936 151.767 217.321 151.716 217.912 151.176C218.193 150.991 218.425 150.739 218.586 150.444C218.747 150.148 218.833 149.817 218.837 149.481C218.7 148.607 218.485 147.747 218.195 146.912C217.982 145.298 218.346 143.66 219.222 142.288C220.093 140.945 220.89 139.555 221.611 138.126C222.112 136.798 222.424 135.406 222.536 133.991C223.269 130.379 222.657 126.624 220.815 123.433C220.094 122.413 219.165 121.558 218.089 120.925C217.013 120.292 215.814 119.894 214.573 119.759C213.554 119.73 212.539 119.609 211.541 119.4C210.026 118.912 209.512 117.345 207.919 116.831C206.541 116.35 205.056 116.261 203.629 116.574C202.24 116.872 200.963 117.56 199.949 118.556C198.935 119.552 198.225 120.815 197.901 122.2Z" fill="#473F47"/>
<path id="Vector_11" d="M205.633 276.587C206.573 277.407 207.379 278.369 208.022 279.438C208.148 279.637 208.203 279.872 208.176 280.106C208.176 280.466 207.688 280.671 207.303 280.774C205.71 281.185 204.026 281.052 202.518 280.396C201.01 279.739 199.764 278.598 198.98 277.152C197.79 275.448 197.146 273.424 197.13 271.346L197.567 268.007C197.62 267.488 197.741 266.978 197.927 266.491C198.174 266.016 198.495 265.583 198.877 265.207C199.511 264.492 200.279 263.907 201.138 263.486C201.237 263.45 201.346 263.45 201.446 263.486C201.651 263.486 201.754 263.743 201.806 263.922C201.949 264.779 201.896 265.658 201.651 266.491C201.352 268.938 201.925 271.412 203.27 273.479C203.919 274.613 204.714 275.658 205.633 276.587V276.587Z" fill="#F89659"/>
<path id="Vector_12" d="M214.239 257.68C214.287 257.94 214.393 258.185 214.547 258.399C214.682 258.576 214.858 258.717 215.061 258.81C215.937 259.175 216.895 259.299 217.835 259.17C218.991 259.17 220.121 258.939 221.252 258.759C221.573 258.762 221.89 258.684 222.173 258.531C222.456 258.378 222.696 258.156 222.87 257.886C222.953 257.581 222.929 257.257 222.803 256.967C222.677 256.678 222.456 256.44 222.176 256.293C221.616 256.006 221.005 255.832 220.378 255.779C219.746 255.698 219.159 255.409 218.708 254.957C218.066 254.161 218.349 252.902 217.681 252.131C217.271 251.825 216.794 251.62 216.289 251.535C215.784 251.45 215.266 251.487 214.778 251.643C212.697 252.286 213.802 256.216 214.239 257.68Z" fill="#F89659"/>
<path id="Vector_13" d="M223.281 227.085C223.153 227.625 223.05 228.164 222.947 228.704C221.791 235.383 220.378 242.036 219.068 248.689C218.905 250.154 218.315 251.538 217.373 252.671C217.115 252.99 216.785 253.243 216.409 253.408C216.034 253.574 215.624 253.647 215.215 253.621H214.984C213.905 253.262 213.288 251.746 213.288 250.231L213.853 223.001C213.942 222.681 213.942 222.344 213.853 222.025C213.641 221.736 213.358 221.506 213.031 221.357C212.261 220.946 211.516 220.509 210.771 220.072C208.484 218.762 206.25 217.349 204.066 215.885C201.138 213.907 198.286 211.826 195.538 209.592C193.54 208.375 191.956 206.584 190.991 204.454C190.076 201.834 189.03 199.262 187.857 196.747C186.499 193.572 184.884 190.514 183.027 187.602C182.796 187.268 181.923 185.573 181.435 185.496L200.11 187.551C201.766 187.478 203.386 188.049 204.631 189.144C206.666 191.519 208.521 194.044 210.18 196.696C214.059 201.834 217.886 207.151 221.842 212.366C223.466 214.11 224.499 216.321 224.797 218.685C224.576 221.529 224.068 224.344 223.281 227.085V227.085Z" fill="#473F47"/>
<path id="Vector_14" d="M202.062 265.644C201.81 265.995 201.507 266.306 201.163 266.568C200.635 267.029 200.047 267.418 199.416 267.724H199.237C198.521 268.02 197.717 268.02 197.002 267.724C195.127 266.928 195.692 262.33 195.589 260.532C195.409 257.706 195.255 254.906 195.075 252.08C194.767 246.583 194.433 241.085 194.125 235.562C193.971 232.994 193.791 230.425 193.662 227.856L192.712 226.186L192.275 225.441L191.761 224.542L191.222 223.54C190.914 223.027 190.605 222.461 190.271 221.871C189.732 220.869 189.218 219.815 188.679 218.788C188.343 218.098 187.965 217.429 187.548 216.784C187.411 216.567 187.256 216.361 187.086 216.168C186.057 215.053 184.95 214.015 183.772 213.059C180.219 209.75 177.854 205.362 177.042 200.575C176.829 199.268 176.743 197.943 176.785 196.619C176.813 194.561 177.141 192.519 177.761 190.556C178.247 189.156 178.866 187.805 179.611 186.523C180.195 185.384 180.978 184.357 181.923 183.492C182.365 183.083 182.867 182.745 183.413 182.49C186.958 180.872 190.554 184.905 193.02 187.037C195.486 189.169 199.75 192.175 201.086 195.386C202.422 198.597 204.939 225.57 204.939 225.57C204.939 232.197 204.939 238.825 204.554 245.427C204.4 249.357 204.22 253.287 203.835 257.192C203.817 260.1 203.215 262.974 202.062 265.644V265.644Z" fill="#473F47"/>
<path id="Vector_15" d="M199.416 267.724H199.237C198.521 268.02 197.717 268.02 197.002 267.724C195.127 266.928 195.692 262.33 195.589 260.532C195.409 257.706 195.255 254.906 195.075 252.08C194.767 246.583 194.433 241.085 194.125 235.562C193.971 232.994 193.791 230.425 193.662 227.856L192.712 226.186L192.275 225.441L191.761 224.542L191.222 223.54C190.914 223.027 190.605 222.461 190.271 221.871L188.448 218.608L187.086 216.039C186.057 214.925 184.95 213.886 183.772 212.931C180.244 209.655 177.881 205.316 177.042 200.575C176.829 199.268 176.743 197.943 176.785 196.619C176.813 194.561 177.141 192.519 177.761 190.556C178.247 189.156 178.866 187.805 179.611 186.523C180.195 185.384 180.978 184.357 181.923 183.492C182.129 183.682 182.311 183.898 182.462 184.134C184.414 186.934 184.312 190.608 184.517 194.024C184.646 198.286 185.516 202.493 187.086 206.458V206.458L187.78 207.87C187.872 208.072 187.975 208.27 188.088 208.461C190.766 212.708 193.143 217.138 195.204 221.716C199.237 231.992 197.772 243.243 198.286 254.135C198.445 257.148 198.771 260.149 199.262 263.126C199.565 264.64 199.617 266.193 199.416 267.724V267.724Z" fill="url(#paint1_linear_1_2)"/>
<path id="Vector_16" d="M256.958 183.569C255.905 183.569 254.852 183.569 253.824 183.569C252.745 183.483 251.687 183.223 250.69 182.799C249.74 182.362 248.944 181.694 247.968 181.283C245.964 180.41 243.78 179.999 241.828 178.997C238.874 177.507 236.022 175.811 233.197 174.142L226.364 170.083C224.055 168.762 221.817 167.322 219.659 165.767L218.4 164.791C217.784 164.277 217.013 163.712 216.242 163.943C215.93 164.091 215.65 164.301 215.42 164.56C214.526 165.784 213.96 167.217 213.776 168.721C213.438 170.033 212.928 171.294 212.261 172.472C211.002 174.784 209.82 177.147 208.459 179.382C207.47 181.568 206.075 183.547 204.349 185.213C203.215 185.813 201.919 186.038 200.65 185.855C197.934 185.492 195.19 185.388 192.455 185.547C191.204 185.842 189.933 186.048 188.653 186.164C186.675 186.122 184.76 185.456 183.181 184.263C181.794 183.184 182.411 181.694 182.976 180.281C185.134 174.655 187.266 171.367 184.748 165.587C185.236 166.718 174.781 170.725 173.471 170.725C168 170.725 164.737 166.718 160.627 163.609C158.183 161.816 155.607 160.21 152.921 158.806C152.104 158.33 151.244 157.935 150.352 157.624C149.504 157.341 148.399 157.367 147.783 156.776C147.526 156.541 147.301 156.274 147.115 155.98C146.774 155.449 146.498 154.88 146.293 154.284C146.121 153.575 145.756 152.926 145.24 152.409C144.465 151.955 143.545 151.817 142.671 152.024C142.201 152.075 141.728 152.075 141.258 152.024C141.169 152.021 141.081 151.999 141.001 151.959C140.922 151.919 140.851 151.862 140.796 151.793C140.731 151.708 140.696 151.604 140.696 151.497C140.696 151.391 140.731 151.287 140.796 151.202C140.975 151.08 141.175 150.993 141.386 150.945L144.906 150.2C143.904 149.327 142.337 149.558 141.104 149.147C140.938 149.102 140.787 149.013 140.667 148.89C140.607 148.747 140.605 148.586 140.663 148.441C140.721 148.297 140.833 148.181 140.975 148.119C141.277 148.028 141.599 148.028 141.9 148.119L145.702 148.556C144.572 147.169 142.157 147.58 141.001 146.218C141.45 145.917 141.968 145.734 142.506 145.685C143.045 145.635 143.587 145.722 144.084 145.936C145.563 146.147 146.996 146.607 148.322 147.297C149.128 147.766 149.87 148.336 150.531 148.993C153.071 151.749 155.801 154.324 158.7 156.699C160.727 158.021 162.922 159.066 165.225 159.807C166.227 160.167 167.28 160.398 168.282 160.732C169.284 161.066 170.543 161.683 171.647 162.145C172.059 162.364 172.517 162.478 172.983 162.479C173.356 162.408 173.713 162.268 174.036 162.068C176.356 160.647 178.408 158.83 180.099 156.699C181.923 154.541 184.055 152.64 185.981 150.585C186.728 149.703 187.657 148.994 188.704 148.505C190.657 147.837 192.738 148.813 194.818 148.89C195.686 148.933 196.553 148.792 197.363 148.478C198.173 148.164 198.907 147.683 199.519 147.066C200.727 145.653 200.675 143.547 202.088 142.134C202.882 141.382 203.869 140.866 204.939 140.644C206.114 140.264 207.256 139.792 208.356 139.231C209.229 138.82 210.334 138.435 211.105 139.026C211.224 139.103 211.322 139.21 211.39 139.336C211.457 139.461 211.492 139.602 211.49 139.745C211.485 139.994 211.404 140.236 211.259 140.438C210.713 141.508 210.224 142.605 209.795 143.726C209.241 144.857 209.027 146.124 209.178 147.374C209.538 149.147 211.747 150.149 213.237 150.791C215.395 151.716 217.784 151.87 219.941 152.743C222.093 153.737 224.024 155.152 225.619 156.905C228.187 159.473 230.32 162.042 232.657 164.611C233.839 165.896 235.046 167.18 236.356 168.387C238.097 169.616 239.935 170.698 241.854 171.624C243.974 173.017 246.198 174.245 248.507 175.298C250.155 176.036 251.877 176.595 253.645 176.967C254.363 177.175 255.092 177.346 255.828 177.481C256.599 177.481 257.01 177.224 257.652 176.839C258.632 176.328 259.764 176.191 260.837 176.453C263.155 176.968 265.325 178.005 267.182 179.485C267.722 179.844 268.313 180.384 268.21 181.026C268.237 181.109 268.237 181.199 268.21 181.283C268.004 181.463 267.696 181.283 267.465 181.103C266.67 180.529 265.693 180.264 264.716 180.358C265.436 180.923 266.206 181.617 266.129 182.516C266.155 182.582 266.155 182.655 266.129 182.721C266.093 182.74 266.054 182.749 266.014 182.749C265.973 182.749 265.934 182.74 265.898 182.721C265.102 182.721 264.511 181.976 263.766 181.617C263.042 181.286 262.247 181.145 261.454 181.206C261.094 181.206 259.938 181.206 259.938 181.668C259.916 181.744 259.916 181.824 259.938 181.899C260.153 182.179 260.404 182.429 260.683 182.644C260.823 182.749 260.929 182.893 260.988 183.057C261.047 183.221 261.057 183.399 261.017 183.569C260.837 183.929 260.349 183.98 259.938 183.955C258.859 183.903 257.935 183.672 256.958 183.569Z" fill="#F89659"/>
<path id="Vector_17" d="M253.722 183.21C253.44 183.384 253.125 183.498 252.797 183.543C251.734 183.47 250.728 183.034 249.946 182.31C247.303 180.996 244.573 179.863 241.777 178.92C238.822 177.43 235.971 175.734 233.145 174.064L226.364 170.083C224.055 168.762 221.817 167.322 219.659 165.767C220.25 166.204 222.69 162.505 223.101 162.171C225.49 160.218 224.642 164.406 224.591 165.819C224.539 166.099 224.539 166.386 224.591 166.666C224.776 167.032 225.073 167.329 225.439 167.514C229.754 170.34 234.199 172.96 238.771 175.375C241.083 176.582 243.472 177.687 245.81 178.868C247.736 179.844 249.817 180.41 251.821 181.206C252.669 181.54 253.619 182.054 253.645 182.953C253.683 183.034 253.709 183.12 253.722 183.21Z" fill="#D57439"/>
<path id="Vector_18" d="M200.804 143.598C200.865 144.497 200.65 145.394 200.187 146.167C199.519 147.066 203.989 148.248 205.325 146.963C206.718 145.398 208.006 143.742 209.178 142.005L200.804 143.598Z" fill="#D57439"/>
<path id="Vector_19" d="M206.095 143.906C204.664 144.463 203.098 144.579 201.6 144.24C200.858 144.057 200.166 143.711 199.575 143.226C198.984 142.742 198.509 142.132 198.183 141.44C197.86 140.5 197.729 139.504 197.798 138.512C197.961 133.702 199.613 129.062 202.525 125.231C202.954 124.596 203.514 124.062 204.169 123.664C205.057 123.235 206.07 123.143 207.02 123.407C208.849 123.89 210.472 124.954 211.644 126.438C212.805 127.901 213.788 129.496 214.573 131.191C215.138 132.244 216.191 133.914 215.703 135.147C214.991 136.286 214.127 137.323 213.134 138.229C211.352 140.73 208.917 142.694 206.095 143.906V143.906Z" fill="#F89659"/>
<path id="Vector_20" d="M207.508 185.599C206.907 186.555 206.055 187.329 205.045 187.836C204.036 188.343 202.906 188.565 201.78 188.476C197.336 188.835 192.866 187.679 188.448 188.476C187.086 188.707 185.879 189.118 184.389 189.221H184.003C183.256 189.291 182.502 189.186 181.802 188.914C181.101 188.642 180.474 188.21 179.97 187.654C178.583 185.83 179.457 183.21 180.356 181.077C182.025 177.25 185.159 172.857 183.361 168.593C183.13 168.13 182.822 167.719 182.616 167.257C182.405 166.755 182.258 166.229 182.18 165.69L181.512 162.402C181.049 160.218 180.613 158.035 180.15 155.826C180.047 155.386 180.047 154.929 180.15 154.49C180.377 153.915 180.782 153.429 181.306 153.103L185.956 149.404C186.86 148.555 187.951 147.93 189.141 147.58C190.403 147.469 191.675 147.538 192.917 147.785C194.571 147.725 196.211 147.458 197.798 146.989C198.004 146.989 198.235 146.989 198.389 146.989C198.549 147.144 198.641 147.357 198.646 147.58C198.824 148.302 199.157 148.977 199.622 149.558C199.955 149.967 200.315 150.354 200.701 150.714L201.189 151.176L203.989 153.745C204.577 154.366 205.263 154.886 206.018 155.286C208.587 156.442 210.411 153.36 210.283 151.073C210.135 149.79 209.752 148.545 209.152 147.4C210.334 147.862 211.516 148.376 212.697 148.916C213.768 149.554 214.884 150.112 216.037 150.585C217.835 151.073 219.556 150.585 221.175 151.716C223.313 153.106 225.279 154.744 227.031 156.596L225.85 159.319C224.283 162.607 222.459 166.152 219.119 167.591C218.246 167.951 217.347 168.182 216.551 168.593C215.112 169.312 214.958 170.442 214.316 171.727C213.211 173.962 212.107 176.197 211.105 178.457C210.101 180.931 208.898 183.319 207.508 185.599V185.599Z" fill="white"/>
<path id="Vector_21" d="M212.158 153.462C212.366 153.209 212.63 153.007 212.929 152.872C213.173 152.807 213.429 152.807 213.674 152.872C216.91 153.128 220.147 153.488 223.358 153.925C219.376 150.38 213.083 150.534 208.818 147.528C208.228 148.633 208.818 149.917 209.127 151.125C209.307 152.213 209.307 153.324 209.127 154.413C209.671 154.539 210.239 154.517 210.772 154.35C211.305 154.183 211.783 153.877 212.158 153.462Z" fill="url(#paint2_linear_1_2)"/>
<path id="Vector_22" d="M149.35 156.211C148.639 156.397 147.887 156.333 147.218 156.031C146.872 155.504 146.596 154.934 146.396 154.336C146.223 153.626 145.859 152.977 145.342 152.461C144.567 152.009 143.648 151.871 142.774 152.075C143.259 151.769 143.818 151.6 144.392 151.587C144.7 151.578 145.002 151.493 145.271 151.341C145.539 151.189 145.767 150.974 145.933 150.714C145.933 150.508 145.933 150.251 146.19 150.072C146.447 149.892 146.858 149.84 147.218 149.892C147.944 150.067 148.65 150.316 149.324 150.637C149.808 150.815 150.253 151.085 150.634 151.433C150.818 151.57 150.972 151.744 151.087 151.943C151.202 152.141 151.275 152.361 151.302 152.589C151.071 152.589 150.737 152.332 150.506 152.204C150.212 152.051 149.901 151.93 149.581 151.844C148.928 151.67 148.251 151.609 147.577 151.664C147.577 151.664 147.372 151.664 147.346 151.664C147.32 151.664 147.346 151.895 147.5 151.972C148.451 152.717 149.658 153.077 150.583 153.873C150.733 153.962 150.851 154.097 150.917 154.259C151.005 154.473 151.005 154.713 150.917 154.927C150.791 155.259 150.58 155.553 150.305 155.778C150.03 156.004 149.701 156.153 149.35 156.211V156.211Z" fill="#D57439"/>
<path id="Vector_23" d="M224.617 256.55C224.229 256.332 223.798 256.201 223.355 256.166C222.911 256.13 222.466 256.191 222.048 256.344C221.663 256.604 221.294 256.887 220.943 257.192C219.838 257.63 218.607 257.63 217.501 257.192C216.287 256.813 215.04 256.546 213.776 256.396C213.776 256.396 213.776 258.965 214.239 259.196C214.843 259.407 215.475 259.528 216.114 259.555C218.672 259.885 221.262 259.885 223.82 259.555C224.54 259.401 226.954 259.016 227.288 258.22C227.622 257.423 225.285 256.781 224.617 256.55Z" fill="#F22929"/>
<path id="Vector_24" d="M209.743 279.926C210.207 280.442 210.503 281.088 210.591 281.776C210.603 282.016 210.53 282.252 210.385 282.444C210.213 282.573 210.009 282.653 209.795 282.675C208.107 283.047 206.364 283.099 204.657 282.829C202.973 282.566 201.431 281.731 200.29 280.466C199.545 279.567 199.057 278.488 198.363 277.563C197.67 276.638 197.027 276.047 196.488 275.2C195.949 274.352 196.488 272.836 196.899 271.912C197.361 271.912 197.207 272.811 197.413 273.222C198.112 274.732 199.108 276.086 200.341 277.203C200.869 277.808 201.515 278.298 202.24 278.643C202.964 278.987 203.752 279.179 204.554 279.207C204.846 279.207 205.134 279.137 205.393 279.003C205.652 278.869 205.876 278.675 206.044 278.436C206.301 278.025 206.044 277.075 206.481 276.921C206.918 276.767 209.332 279.515 209.743 279.926Z" fill="#F22929"/>
<path id="Vector_25" d="M215.318 253.621H215.086C214.007 253.262 213.391 251.746 213.391 250.231L213.853 223.001C213.942 222.681 213.942 222.344 213.853 222.025C213.641 221.736 213.358 221.506 213.031 221.357C212.261 220.946 211.516 220.509 210.771 220.072C208.484 218.762 206.25 217.349 204.066 215.885L202.73 205.019C202.73 205.019 216.268 213.984 217.681 218.197C219.094 222.41 215.318 253.621 215.318 253.621Z" fill="url(#paint3_linear_1_2)"/>
<path id="Vector_26" d="M208.87 132.321C209.891 132.698 210.938 132.999 212.004 133.22C213.057 133.58 214.11 134.376 214.136 135.455C215.035 135.455 215.523 134.427 215.78 133.58C216.3 132.163 216.645 130.688 216.808 129.187C216.953 127.682 216.591 126.172 215.78 124.897C214.316 122.816 208.895 118.912 207.174 122.559C205.864 125.385 205.71 130.677 208.87 132.321Z" fill="#473F47"/>
</g>
<path id="Vector_27" d="M236.125 244.065C234.224 243.757 232.323 243.449 230.422 243.089L231.039 239.724C232.914 240.058 234.789 240.392 236.665 240.674L236.125 244.065Z" fill="#F22929"/>
<path id="Vector_28" d="M219.042 240.829C217.167 240.418 215.318 239.981 213.442 239.518L214.239 236.205L219.787 237.489L219.042 240.829Z" fill="#F22929"/>
<path id="Vector_29" d="M202.268 236.616L196.719 234.997L197.721 231.709C199.545 232.274 201.369 232.788 203.193 233.302L202.268 236.616Z" fill="#F22929"/>
<path id="Vector_30" d="M185.75 231.452C183.952 230.836 182.128 230.194 180.33 229.526L181.512 226.315L186.881 228.216L185.75 231.452Z" fill="#F22929"/>
<g id="Bar">
<path id="Vector_31" d="M269.905 185.65L296.339 129.701L343.554 140.952L316.658 197.518L269.905 185.65Z" fill="#F22929"/>
<g id="Bars_object">
<path id="Vector_32" d="M288.838 177.635L283.957 176.531L287.785 168.952L292.691 170.057L288.838 177.635Z" fill="white"/>
<path id="Vector_33" d="M294.874 178.971L289.968 177.892L297.803 162.453L302.709 163.532L294.874 178.971Z" fill="#F22929"/>
<path id="Vector_34" d="M294.874 178.971L289.968 177.892L297.803 162.453L302.709 163.532L294.874 178.971Z" fill="url(#paint4_linear_1_2)"/>
<path id="Vector_35" d="M300.911 180.332L296.005 179.228L300.783 169.826L305.664 170.93L300.911 180.332Z" fill="white"/>
<path id="Vector_36" d="M306.922 181.694L302.042 180.589L312.368 160.27L317.249 161.374L306.922 181.694Z" fill="#F22929"/>
<path id="Vector_37" d="M306.922 181.694L302.042 180.589L312.368 160.27L317.249 161.374L306.922 181.694Z" fill="url(#paint5_linear_1_2)"/>
<path id="Vector_38" d="M312.959 183.055L308.078 181.951L321.282 155.954L326.163 157.059L312.959 183.055Z" fill="white"/>
</g>
</g>
<g id="Doughnut">
<path id="Vector_39" d="M72.1306 65.2742L153.306 39.3546L173.6 123.253L105.654 158.035L72.1306 65.2742Z" fill="white"/>
<g id="Doughnet_object">
<path id="Vector_40" d="M113.258 92.6837C113.246 90.4482 113.729 88.2377 114.67 86.2102L105.114 80.9441C103.296 84.5898 102.355 88.6098 102.366 92.6837C102.385 98.5848 104.367 104.312 107.999 108.963C111.631 113.614 116.708 116.924 122.428 118.372L124.381 107.506C121.185 106.55 118.38 104.594 116.378 101.926C114.376 99.2586 113.283 96.0191 113.258 92.6837V92.6837Z" fill="#473F47"/>
<path id="Vector_41" opacity="0.18" d="M151.662 106.35C149.286 110.279 145.935 113.526 141.933 115.777C137.932 118.028 133.416 119.205 128.825 119.194C126.624 119.195 124.432 118.918 122.3 118.372L124.252 107.506C125.736 107.95 127.276 108.175 128.825 108.174C131.445 108.179 134.025 107.522 136.324 106.265C138.623 105.007 140.568 103.19 141.977 100.981L151.662 106.35Z" fill="#F22929"/>
<path id="Vector_42" d="M155.438 92.6837C155.445 97.4976 154.139 102.222 151.662 106.35L141.977 101.084C143.146 99.2814 143.929 97.2571 144.278 95.1377C144.628 93.0183 144.535 90.8496 144.007 88.7676C143.479 86.6856 142.526 84.7352 141.209 83.0386C139.892 81.342 138.238 79.9359 136.352 78.9085C134.465 77.8811 132.387 77.2544 130.247 77.0679C128.107 76.8814 125.952 77.1389 123.917 77.8245C121.881 78.51 120.009 79.6088 118.418 81.0518C116.827 82.4948 115.551 84.251 114.671 86.2102L105.114 80.9441C107.763 75.5522 112.159 71.2159 117.587 68.6419C123.014 66.0679 129.154 65.4079 135.005 66.7693C140.855 68.1307 146.073 71.4334 149.807 76.1392C153.54 80.845 155.571 86.6765 155.566 92.6837H155.438Z" fill="#F22929"/>
</g>
</g>
<g id="cogs">
<path id="Vector_43" d="M270.548 277.46L277.894 229.346L333.741 225.672L321.745 272.22L270.548 277.46Z" fill="white"/>
<path id="big_cog_object" d="M287.502 262.612C287.495 262.465 287.519 262.319 287.572 262.182C287.625 262.044 287.706 261.92 287.81 261.816C288.288 261.329 288.633 260.728 288.812 260.069C288.921 259.655 288.899 259.217 288.747 258.816C288.595 258.415 288.321 258.072 287.964 257.834C287.526 257.504 287.029 257.26 286.5 257.115C286.238 257.043 286.01 256.879 285.859 256.652C285.708 256.425 285.644 256.152 285.678 255.882C285.678 255.548 285.678 255.188 285.678 254.854C285.688 254.699 285.728 254.547 285.797 254.408C285.865 254.268 285.961 254.143 286.078 254.041C286.195 253.938 286.331 253.859 286.478 253.81C286.626 253.76 286.782 253.739 286.937 253.75C287.443 253.743 287.942 253.629 288.401 253.416C288.896 253.225 289.3 252.854 289.533 252.378C289.767 251.902 289.812 251.355 289.66 250.847C289.535 250.397 289.372 249.959 289.172 249.537C289.053 249.293 289.025 249.015 289.09 248.752C289.156 248.489 289.312 248.258 289.531 248.098C289.799 247.907 290.057 247.701 290.302 247.482C290.531 247.307 290.81 247.212 291.098 247.212C291.386 247.212 291.666 247.307 291.895 247.482C292.271 247.861 292.715 248.167 293.205 248.381C293.651 248.571 294.149 248.603 294.616 248.473C295.083 248.342 295.491 248.056 295.774 247.662C296.113 247.197 296.365 246.675 296.519 246.12C296.607 245.862 296.785 245.644 297.021 245.507C297.257 245.37 297.535 245.324 297.803 245.375H298.831C299.105 245.401 299.361 245.529 299.546 245.733C299.731 245.938 299.834 246.204 299.832 246.48C299.86 247.144 300.036 247.793 300.346 248.381C300.574 248.762 300.912 249.064 301.316 249.247C301.72 249.431 302.17 249.487 302.607 249.408C303.107 249.303 303.591 249.13 304.045 248.895C304.309 248.741 304.622 248.695 304.919 248.766C305.216 248.838 305.474 249.022 305.638 249.28C305.818 249.588 306.1 249.845 306.306 250.153C306.444 250.37 306.507 250.626 306.484 250.882C306.461 251.138 306.353 251.379 306.177 251.566C305.788 251.964 305.482 252.436 305.278 252.953C305.051 253.458 305.031 254.032 305.223 254.551C305.415 255.071 305.804 255.493 306.306 255.728C306.68 255.949 307.076 256.13 307.487 256.267C307.731 256.336 307.945 256.485 308.094 256.69C308.243 256.895 308.319 257.144 308.31 257.398C308.31 257.809 308.31 258.22 308.155 258.656C308.117 258.926 307.981 259.173 307.772 259.348C307.564 259.524 307.298 259.616 307.025 259.607C306.419 259.633 305.825 259.782 305.278 260.043C304.863 260.24 304.525 260.568 304.316 260.977C304.106 261.386 304.039 261.853 304.122 262.304C304.205 262.832 304.37 263.343 304.61 263.82C304.695 263.947 304.752 264.09 304.78 264.24C304.807 264.39 304.804 264.544 304.771 264.693C304.737 264.842 304.674 264.982 304.584 265.106C304.495 265.229 304.382 265.334 304.251 265.412L303.532 265.952C303.32 266.162 303.033 266.28 302.735 266.28C302.437 266.28 302.151 266.162 301.939 265.952C301.52 265.552 301.021 265.246 300.475 265.053C300.017 264.873 299.512 264.856 299.044 265.006C298.576 265.156 298.174 265.463 297.906 265.875C297.588 266.317 297.353 266.813 297.212 267.339C297.135 267.59 296.972 267.805 296.75 267.947C296.529 268.088 296.265 268.146 296.005 268.11L294.797 267.955C294.551 267.911 294.327 267.786 294.16 267.6C293.992 267.414 293.891 267.177 293.873 266.928C293.864 266.306 293.724 265.693 293.462 265.13C293.252 264.654 292.873 264.273 292.399 264.059C291.925 263.846 291.388 263.815 290.893 263.974C290.409 264.107 289.936 264.278 289.48 264.488C289.249 264.606 288.985 264.645 288.73 264.598C288.475 264.552 288.242 264.423 288.067 264.231C287.81 263.897 287.553 263.588 287.322 263.229C287.206 263.028 287.119 262.812 287.065 262.587L287.502 262.612ZM297.109 252.979C296.367 252.974 295.639 253.19 295.019 253.599C294.399 254.008 293.914 254.592 293.626 255.277C293.338 255.961 293.26 256.716 293.402 257.445C293.544 258.175 293.899 258.845 294.423 259.372C294.946 259.9 295.614 260.259 296.343 260.406C297.071 260.553 297.826 260.48 298.513 260.197C299.2 259.914 299.787 259.433 300.2 258.816C300.614 258.199 300.834 257.473 300.834 256.73C300.834 256.233 300.736 255.741 300.544 255.282C300.352 254.824 300.071 254.408 299.718 254.059C299.364 253.71 298.944 253.435 298.483 253.25C298.022 253.064 297.529 252.972 297.032 252.979H297.109Z" fill="#F22929"/>
<path id="little_cog_object" d="M315.913 251.72C315.926 251.866 315.926 252.012 315.913 252.157C315.905 252.335 315.837 252.506 315.721 252.641C315.605 252.776 315.446 252.868 315.271 252.902L314.5 253.108C314.299 253.162 314.085 253.143 313.896 253.054C313.708 252.964 313.558 252.81 313.473 252.62C313.293 252.311 313.113 252.003 312.908 251.72C312.772 251.54 312.602 251.39 312.406 251.279C312.21 251.167 311.993 251.097 311.769 251.073C311.545 251.049 311.318 251.071 311.103 251.139C310.888 251.206 310.689 251.316 310.519 251.464C310.261 251.657 310.02 251.871 309.799 252.106C309.666 252.26 309.482 252.363 309.28 252.396C309.078 252.429 308.871 252.39 308.695 252.286L308.078 251.926C307.863 251.82 307.698 251.636 307.616 251.41C307.535 251.185 307.544 250.937 307.642 250.719C307.768 250.362 307.845 249.991 307.873 249.614C307.902 249.204 307.771 248.798 307.508 248.482C307.244 248.166 306.869 247.964 306.46 247.919C306.058 247.893 305.655 247.893 305.253 247.919C305.052 247.913 304.86 247.834 304.713 247.697C304.566 247.56 304.475 247.374 304.456 247.174C304.42 246.956 304.369 246.742 304.302 246.531C304.239 246.323 304.254 246.099 304.343 245.9C304.433 245.702 304.592 245.543 304.79 245.452C305.176 245.267 305.531 245.025 305.843 244.733C306.123 244.481 306.301 244.136 306.343 243.762C306.386 243.388 306.29 243.012 306.075 242.704C305.866 242.427 305.643 242.161 305.407 241.907C305.299 241.839 305.207 241.748 305.137 241.641C305.067 241.533 305.021 241.413 305.002 241.286C304.982 241.16 304.99 241.031 305.024 240.907C305.059 240.784 305.119 240.67 305.201 240.572L305.509 240.007C305.622 239.82 305.799 239.68 306.007 239.614C306.215 239.548 306.44 239.559 306.64 239.647C307.078 239.831 307.555 239.902 308.027 239.852C308.351 239.844 308.662 239.728 308.913 239.524C309.164 239.319 309.34 239.037 309.414 238.722C309.509 238.301 309.552 237.869 309.543 237.438C309.525 237.24 309.574 237.042 309.681 236.875C309.787 236.707 309.947 236.58 310.133 236.513L311.033 236.307C311.237 236.251 311.455 236.275 311.642 236.376C311.829 236.476 311.969 236.645 312.034 236.847C312.233 237.308 312.542 237.714 312.933 238.029C313.221 238.271 313.585 238.404 313.961 238.404C314.337 238.404 314.701 238.271 314.989 238.029C315.22 237.852 315.435 237.654 315.631 237.438C315.765 237.277 315.95 237.166 316.155 237.124C316.361 237.082 316.574 237.111 316.761 237.206L317.506 237.643C317.678 237.75 317.807 237.915 317.868 238.108C317.929 238.301 317.919 238.51 317.84 238.696C317.676 239.113 317.598 239.559 317.609 240.007C317.611 240.394 317.752 240.768 318.007 241.06C318.261 241.353 318.612 241.544 318.996 241.599H320.075C320.292 241.577 320.509 241.639 320.681 241.773C320.854 241.907 320.968 242.103 321 242.318C321 242.575 321.128 242.832 321.179 243.089C321.237 243.28 321.218 243.485 321.127 243.663C321.036 243.84 320.88 243.975 320.691 244.04C320.274 244.218 319.898 244.48 319.587 244.81C319.344 245.046 319.186 245.356 319.14 245.691C319.093 246.026 319.16 246.367 319.33 246.66C319.552 247.018 319.82 247.346 320.126 247.636C320.309 247.779 320.431 247.984 320.469 248.213C320.507 248.441 320.458 248.675 320.332 248.869L319.972 249.46C319.923 249.562 319.854 249.654 319.768 249.729C319.683 249.804 319.584 249.862 319.476 249.898C319.368 249.933 319.254 249.947 319.141 249.938C319.027 249.929 318.917 249.898 318.816 249.845C318.265 249.667 317.672 249.667 317.121 249.845C316.841 249.93 316.59 250.089 316.396 250.307C316.201 250.524 316.069 250.791 316.016 251.078C315.989 251.369 315.989 251.661 316.016 251.952L315.913 251.72ZM312.728 241.856C312.358 241.853 311.991 241.923 311.649 242.062C311.306 242.201 310.994 242.407 310.731 242.667C310.469 242.927 310.26 243.237 310.118 243.579C309.975 243.92 309.902 244.286 309.902 244.656C309.897 245.216 310.059 245.765 310.366 246.233C310.673 246.701 311.113 247.067 311.629 247.285C312.145 247.503 312.713 247.562 313.263 247.456C313.813 247.35 314.319 247.083 314.717 246.689C315.115 246.295 315.386 245.791 315.497 245.243C315.608 244.694 315.554 244.124 315.341 243.606C315.128 243.089 314.766 242.646 314.3 242.334C313.835 242.023 313.288 241.856 312.728 241.856V241.856Z" fill="#F22929"/>
</g>
<g id="Pie">
<path id="Vector_44" d="M67.4296 231.452L106.039 255.625L119.012 212.597L76.4205 183.543L67.4296 231.452Z" fill="#F22929"/>
<g id="Pie_object">
<path id="Vector_45" d="M89.65 231.555C96.3606 231.555 101.801 226.115 101.801 219.404C101.801 212.694 96.3606 207.254 89.65 207.254C82.9394 207.254 77.4994 212.694 77.4994 219.404C77.4994 226.115 82.9394 231.555 89.65 231.555Z" fill="#473F47"/>
<path id="Vector_46" d="M89.7014 205.019V219.867L102.777 210.439C102.777 210.439 96.74 203.863 89.7014 205.019Z" fill="white"/>
</g>
</g>
<g id="plant_object">
<path id="Vector_47" d="M174.422 260.711L158.315 265.233L163.889 275.996L175.321 272.785L174.422 260.711Z" fill="#F22929"/>
<path id="Vector_48" d="M174.422 260.711L158.315 265.233L163.889 275.996L175.321 272.785L174.422 260.711Z" fill="url(#paint6_linear_1_2)"/>
<path id="Vector_49" d="M148.271 238.208C148.126 239.132 148.214 240.077 148.528 240.957C149.446 245.096 151.08 249.043 153.357 252.62C156.928 257.757 162.502 260.968 167.897 264.077C167.434 263.691 167.511 260.84 167.434 260.198L167.049 256.396C166.721 254.388 165.939 252.482 164.763 250.821C162.409 246.949 159.169 243.691 155.309 241.317C153.122 239.953 150.752 238.907 148.271 238.208V238.208Z" fill="#F22929"/>
<path id="Vector_50" d="M148.271 238.208C148.126 239.132 148.214 240.077 148.528 240.957C149.446 245.096 151.08 249.043 153.357 252.62C156.928 257.757 162.502 260.968 167.897 264.077C167.434 263.691 167.511 260.84 167.434 260.198L167.049 256.396C166.721 254.388 165.939 252.482 164.763 250.821C162.409 246.949 159.169 243.691 155.309 241.317C153.122 239.953 150.752 238.907 148.271 238.208V238.208Z" fill="url(#paint7_linear_1_2)"/>
<path id="Vector_51" d="M170.466 246.12C171.014 242.723 171.109 239.268 170.748 235.845C170.34 232.362 168.566 229.184 165.816 227.008L161.783 241.188C160.863 243.878 160.369 246.695 160.319 249.537C160.532 252.335 161.328 255.058 162.655 257.531C163.982 260.004 165.811 262.172 168.025 263.897C169.31 261.867 169.027 258.22 169.31 255.831L170.466 246.12Z" fill="#F22929"/>
<path id="Vector_52" d="M170.466 246.12C171.014 242.723 171.109 239.268 170.748 235.845C170.34 232.362 168.566 229.184 165.816 227.008L161.783 241.188C160.863 243.878 160.369 246.695 160.319 249.537C160.532 252.335 161.328 255.058 162.655 257.531C163.982 260.004 165.811 262.172 168.025 263.897C169.31 261.867 169.027 258.22 169.31 255.831L170.466 246.12Z" fill="url(#paint8_linear_1_2)"/>
<path id="Vector_53" d="M173.926 256.6L156.643 261.468C155.195 261.876 154.351 263.374 154.756 264.815C155.162 266.256 156.664 267.093 158.112 266.685L175.396 261.817C176.843 261.41 177.688 259.911 177.282 258.471C176.876 257.03 175.374 256.192 173.926 256.6Z" fill="#F22929"/>
</g>
</g>
<defs>
<linearGradient id="paint0_linear_1_2" x1="261.582" y1="80.9184" x2="318.174" y2="80.9184" gradientUnits="userSpaceOnUse">
<stop offset="0.01"/>
<stop offset="0.08" stop-opacity="0.69"/>
<stop offset="0.21" stop-opacity="0.32"/>
<stop offset="1" stop-opacity="0"/>
</linearGradient>
<linearGradient id="paint1_linear_1_2" x1="69.2209" y1="129.72" x2="581.569" y2="538.767" gradientUnits="userSpaceOnUse">
<stop offset="0.01"/>
<stop offset="0.08" stop-opacity="0.69"/>
<stop offset="0.21" stop-opacity="0.32"/>
<stop offset="1" stop-opacity="0"/>
</linearGradient>
<linearGradient id="paint2_linear_1_2" x1="113.591" y1="54.5956" x2="385.413" y2="318.026" gradientUnits="userSpaceOnUse">
<stop offset="0.01"/>
<stop offset="0.08" stop-opacity="0.69"/>
<stop offset="0.21" stop-opacity="0.32"/>
<stop offset="1" stop-opacity="0"/>
</linearGradient>
<linearGradient id="paint3_linear_1_2" x1="185.461" y1="232.315" x2="283.67" y2="219.857" gradientUnits="userSpaceOnUse">
<stop offset="0.01"/>
<stop offset="0.08" stop-opacity="0.69"/>
<stop offset="0.21" stop-opacity="0.32"/>
<stop offset="1" stop-opacity="0"/>
</linearGradient>
<linearGradient id="paint4_linear_1_2" x1="297.901" y1="137.646" x2="328.422" y2="248.795" gradientUnits="userSpaceOnUse">
<stop offset="0.01"/>
<stop offset="0.08" stop-opacity="0.69"/>
<stop offset="0.21" stop-opacity="0.32"/>
<stop offset="1" stop-opacity="0"/>
</linearGradient>
<linearGradient id="paint5_linear_1_2" x1="311.333" y1="133.963" x2="341.836" y2="245.112" gradientUnits="userSpaceOnUse">
<stop offset="0.01"/>
<stop offset="0.08" stop-opacity="0.69"/>
<stop offset="0.21" stop-opacity="0.32"/>
<stop offset="1" stop-opacity="0"/>
</linearGradient>
<linearGradient id="paint6_linear_1_2" x1="154.506" y1="250.443" x2="189.929" y2="293.681" gradientUnits="userSpaceOnUse">
<stop offset="0.01"/>
<stop offset="0.08" stop-opacity="0.69"/>
<stop offset="0.21" stop-opacity="0.32"/>
<stop offset="1" stop-opacity="0"/>
</linearGradient>
<linearGradient id="paint7_linear_1_2" x1="173.156" y1="243.717" x2="129.019" y2="264.916" gradientUnits="userSpaceOnUse">
<stop offset="0.01"/>
<stop offset="0.13" stop-opacity="0.69"/>
<stop offset="0.25" stop-opacity="0.32"/>
<stop offset="1" stop-opacity="0"/>
</linearGradient>
<linearGradient id="paint8_linear_1_2" x1="134.838" y1="262.458" x2="202.31" y2="226.61" gradientUnits="userSpaceOnUse">
<stop offset="0.01"/>
<stop offset="0.13" stop-opacity="0.69"/>
<stop offset="0.25" stop-opacity="0.32"/>
<stop offset="1" stop-opacity="0"/>
</linearGradient>
<clipPath id="clip0_1_2">
<rect width="406" height="306" fill="white"/>
</clipPath>
</defs>
</svg>
