<svg width="112" height="67" viewBox="0 0 112 67" fill="#600505" xmlns="http://www.w3.org/2000/svg">
<path d="M85.331 67C86.409 64.2074 87 61.1727 87 58C87 44.1929 75.8071 33 62 33C48.1929 33 37 44.1929 37 58C37 61.1727 37.591 64.2074 38.669 67H49.9989C48.1158 64.493 47 61.3768 47 58C47 49.7157 53.7157 43 62 43C70.2843 43 77 49.7157 77 58C77 61.3768 75.8842 64.493 74.0011 67H85.331Z" fill="inherit"/>
<path d="M109.036 67C110.954 61.6931 112 55.9687 112 50C112 22.3858 89.6142 0 62 0C34.3858 0 12 22.3858 12 50C12 55.9687 13.0458 61.6931 14.9643 67H25.7818C23.3559 61.8407 22 56.0787 22 50C22 27.9086 39.9086 10 62 10C84.0914 10 102 27.9086 102 50C102 56.0787 100.644 61.8407 98.2182 67H109.036Z" fill="inherit"/>
<circle cx="37" cy="34" r="5" fill="inherit"/>
<path d="M0 50.9124C3.83355 52.7938 7.94324 54.1988 12.2519 55.0503C12.0853 53.3895 12 51.7047 12 50C12 48.2466 12.0903 46.5143 12.2664 44.8074C7.9446 43.7269 3.90135 41.9434 0.265173 39.5854L0 39.9951V50.9124Z" fill="inherit"/>
<path d="M71.7442 0.948959C71.7121 0.632202 71.6769 0.315872 71.6387 0H71.6437C71.6815 0.315674 71.7163 0.632263 71.7481 0.949722L71.7442 0.948959Z" fill="inherit"/>
<path d="M22.1975 45.9995C22.0669 47.3153 22 48.6498 22 50C22 52.0386 22.1525 54.0415 22.4467 55.998C48.1055 55.7735 69.1511 36.2217 71.7336 11.1926C68.6178 10.4136 65.3572 10 62 10C61.9341 10 61.8683 10.0002 61.8025 10.0005C59.8017 30.1493 42.8494 45.8997 22.1975 45.9995Z" fill="inherit"/>
</svg>
